%TF.GenerationSoftware,KiCad,Pcbnew,9.0.1*%
%TF.CreationDate,2025-05-02T11:49:09+03:00*%
%TF.ProjectId,Kampela_H1,4b616d70-656c-4615-9f48-312e6b696361,rev?*%
%TF.SameCoordinates,Original*%
%TF.FileFunction,Legend,Bot*%
%TF.FilePolarity,Positive*%
%FSLAX46Y46*%
G04 Gerber Fmt 4.6, Leading zero omitted, Abs format (unit mm)*
G04 Created by KiCad (PCBNEW 9.0.1) date 2025-05-02 11:49:09*
%MOMM*%
%LPD*%
G01*
G04 APERTURE LIST*
%ADD10C,0.200000*%
%ADD11C,0.120000*%
%ADD12C,0.100000*%
G04 APERTURE END LIST*
D10*
X101660000Y-73010000D02*
X166660000Y-73010000D01*
X166660000Y-118010000D01*
X101660000Y-118010000D01*
X101660000Y-73010000D01*
D11*
X95945714Y-99764188D02*
X95974286Y-99792760D01*
X95974286Y-99792760D02*
X96060000Y-99821331D01*
X96060000Y-99821331D02*
X96117143Y-99821331D01*
X96117143Y-99821331D02*
X96202857Y-99792760D01*
X96202857Y-99792760D02*
X96260000Y-99735617D01*
X96260000Y-99735617D02*
X96288571Y-99678474D01*
X96288571Y-99678474D02*
X96317143Y-99564188D01*
X96317143Y-99564188D02*
X96317143Y-99478474D01*
X96317143Y-99478474D02*
X96288571Y-99364188D01*
X96288571Y-99364188D02*
X96260000Y-99307045D01*
X96260000Y-99307045D02*
X96202857Y-99249902D01*
X96202857Y-99249902D02*
X96117143Y-99221331D01*
X96117143Y-99221331D02*
X96060000Y-99221331D01*
X96060000Y-99221331D02*
X95974286Y-99249902D01*
X95974286Y-99249902D02*
X95945714Y-99278474D01*
X95745714Y-99221331D02*
X95374286Y-99221331D01*
X95374286Y-99221331D02*
X95574286Y-99449902D01*
X95574286Y-99449902D02*
X95488571Y-99449902D01*
X95488571Y-99449902D02*
X95431429Y-99478474D01*
X95431429Y-99478474D02*
X95402857Y-99507045D01*
X95402857Y-99507045D02*
X95374286Y-99564188D01*
X95374286Y-99564188D02*
X95374286Y-99707045D01*
X95374286Y-99707045D02*
X95402857Y-99764188D01*
X95402857Y-99764188D02*
X95431429Y-99792760D01*
X95431429Y-99792760D02*
X95488571Y-99821331D01*
X95488571Y-99821331D02*
X95660000Y-99821331D01*
X95660000Y-99821331D02*
X95717143Y-99792760D01*
X95717143Y-99792760D02*
X95745714Y-99764188D01*
X94860000Y-99421331D02*
X94860000Y-99821331D01*
X95002857Y-99192760D02*
X95145714Y-99621331D01*
X95145714Y-99621331D02*
X94774285Y-99621331D01*
X103135714Y-95714188D02*
X103164286Y-95742760D01*
X103164286Y-95742760D02*
X103250000Y-95771331D01*
X103250000Y-95771331D02*
X103307143Y-95771331D01*
X103307143Y-95771331D02*
X103392857Y-95742760D01*
X103392857Y-95742760D02*
X103450000Y-95685617D01*
X103450000Y-95685617D02*
X103478571Y-95628474D01*
X103478571Y-95628474D02*
X103507143Y-95514188D01*
X103507143Y-95514188D02*
X103507143Y-95428474D01*
X103507143Y-95428474D02*
X103478571Y-95314188D01*
X103478571Y-95314188D02*
X103450000Y-95257045D01*
X103450000Y-95257045D02*
X103392857Y-95199902D01*
X103392857Y-95199902D02*
X103307143Y-95171331D01*
X103307143Y-95171331D02*
X103250000Y-95171331D01*
X103250000Y-95171331D02*
X103164286Y-95199902D01*
X103164286Y-95199902D02*
X103135714Y-95228474D01*
X102907143Y-95228474D02*
X102878571Y-95199902D01*
X102878571Y-95199902D02*
X102821429Y-95171331D01*
X102821429Y-95171331D02*
X102678571Y-95171331D01*
X102678571Y-95171331D02*
X102621429Y-95199902D01*
X102621429Y-95199902D02*
X102592857Y-95228474D01*
X102592857Y-95228474D02*
X102564286Y-95285617D01*
X102564286Y-95285617D02*
X102564286Y-95342760D01*
X102564286Y-95342760D02*
X102592857Y-95428474D01*
X102592857Y-95428474D02*
X102935714Y-95771331D01*
X102935714Y-95771331D02*
X102564286Y-95771331D01*
X102364285Y-95171331D02*
X101992857Y-95171331D01*
X101992857Y-95171331D02*
X102192857Y-95399902D01*
X102192857Y-95399902D02*
X102107142Y-95399902D01*
X102107142Y-95399902D02*
X102050000Y-95428474D01*
X102050000Y-95428474D02*
X102021428Y-95457045D01*
X102021428Y-95457045D02*
X101992857Y-95514188D01*
X101992857Y-95514188D02*
X101992857Y-95657045D01*
X101992857Y-95657045D02*
X102021428Y-95714188D01*
X102021428Y-95714188D02*
X102050000Y-95742760D01*
X102050000Y-95742760D02*
X102107142Y-95771331D01*
X102107142Y-95771331D02*
X102278571Y-95771331D01*
X102278571Y-95771331D02*
X102335714Y-95742760D01*
X102335714Y-95742760D02*
X102364285Y-95714188D01*
X103135714Y-90914188D02*
X103164286Y-90942760D01*
X103164286Y-90942760D02*
X103250000Y-90971331D01*
X103250000Y-90971331D02*
X103307143Y-90971331D01*
X103307143Y-90971331D02*
X103392857Y-90942760D01*
X103392857Y-90942760D02*
X103450000Y-90885617D01*
X103450000Y-90885617D02*
X103478571Y-90828474D01*
X103478571Y-90828474D02*
X103507143Y-90714188D01*
X103507143Y-90714188D02*
X103507143Y-90628474D01*
X103507143Y-90628474D02*
X103478571Y-90514188D01*
X103478571Y-90514188D02*
X103450000Y-90457045D01*
X103450000Y-90457045D02*
X103392857Y-90399902D01*
X103392857Y-90399902D02*
X103307143Y-90371331D01*
X103307143Y-90371331D02*
X103250000Y-90371331D01*
X103250000Y-90371331D02*
X103164286Y-90399902D01*
X103164286Y-90399902D02*
X103135714Y-90428474D01*
X102564286Y-90971331D02*
X102907143Y-90971331D01*
X102735714Y-90971331D02*
X102735714Y-90371331D01*
X102735714Y-90371331D02*
X102792857Y-90457045D01*
X102792857Y-90457045D02*
X102850000Y-90514188D01*
X102850000Y-90514188D02*
X102907143Y-90542760D01*
X102050000Y-90371331D02*
X102164285Y-90371331D01*
X102164285Y-90371331D02*
X102221428Y-90399902D01*
X102221428Y-90399902D02*
X102250000Y-90428474D01*
X102250000Y-90428474D02*
X102307142Y-90514188D01*
X102307142Y-90514188D02*
X102335714Y-90628474D01*
X102335714Y-90628474D02*
X102335714Y-90857045D01*
X102335714Y-90857045D02*
X102307142Y-90914188D01*
X102307142Y-90914188D02*
X102278571Y-90942760D01*
X102278571Y-90942760D02*
X102221428Y-90971331D01*
X102221428Y-90971331D02*
X102107142Y-90971331D01*
X102107142Y-90971331D02*
X102050000Y-90942760D01*
X102050000Y-90942760D02*
X102021428Y-90914188D01*
X102021428Y-90914188D02*
X101992857Y-90857045D01*
X101992857Y-90857045D02*
X101992857Y-90714188D01*
X101992857Y-90714188D02*
X102021428Y-90657045D01*
X102021428Y-90657045D02*
X102050000Y-90628474D01*
X102050000Y-90628474D02*
X102107142Y-90599902D01*
X102107142Y-90599902D02*
X102221428Y-90599902D01*
X102221428Y-90599902D02*
X102278571Y-90628474D01*
X102278571Y-90628474D02*
X102307142Y-90657045D01*
X102307142Y-90657045D02*
X102335714Y-90714188D01*
X103135714Y-94114188D02*
X103164286Y-94142760D01*
X103164286Y-94142760D02*
X103250000Y-94171331D01*
X103250000Y-94171331D02*
X103307143Y-94171331D01*
X103307143Y-94171331D02*
X103392857Y-94142760D01*
X103392857Y-94142760D02*
X103450000Y-94085617D01*
X103450000Y-94085617D02*
X103478571Y-94028474D01*
X103478571Y-94028474D02*
X103507143Y-93914188D01*
X103507143Y-93914188D02*
X103507143Y-93828474D01*
X103507143Y-93828474D02*
X103478571Y-93714188D01*
X103478571Y-93714188D02*
X103450000Y-93657045D01*
X103450000Y-93657045D02*
X103392857Y-93599902D01*
X103392857Y-93599902D02*
X103307143Y-93571331D01*
X103307143Y-93571331D02*
X103250000Y-93571331D01*
X103250000Y-93571331D02*
X103164286Y-93599902D01*
X103164286Y-93599902D02*
X103135714Y-93628474D01*
X102907143Y-93628474D02*
X102878571Y-93599902D01*
X102878571Y-93599902D02*
X102821429Y-93571331D01*
X102821429Y-93571331D02*
X102678571Y-93571331D01*
X102678571Y-93571331D02*
X102621429Y-93599902D01*
X102621429Y-93599902D02*
X102592857Y-93628474D01*
X102592857Y-93628474D02*
X102564286Y-93685617D01*
X102564286Y-93685617D02*
X102564286Y-93742760D01*
X102564286Y-93742760D02*
X102592857Y-93828474D01*
X102592857Y-93828474D02*
X102935714Y-94171331D01*
X102935714Y-94171331D02*
X102564286Y-94171331D01*
X101992857Y-94171331D02*
X102335714Y-94171331D01*
X102164285Y-94171331D02*
X102164285Y-93571331D01*
X102164285Y-93571331D02*
X102221428Y-93657045D01*
X102221428Y-93657045D02*
X102278571Y-93714188D01*
X102278571Y-93714188D02*
X102335714Y-93742760D01*
X95945714Y-94964188D02*
X95974286Y-94992760D01*
X95974286Y-94992760D02*
X96060000Y-95021331D01*
X96060000Y-95021331D02*
X96117143Y-95021331D01*
X96117143Y-95021331D02*
X96202857Y-94992760D01*
X96202857Y-94992760D02*
X96260000Y-94935617D01*
X96260000Y-94935617D02*
X96288571Y-94878474D01*
X96288571Y-94878474D02*
X96317143Y-94764188D01*
X96317143Y-94764188D02*
X96317143Y-94678474D01*
X96317143Y-94678474D02*
X96288571Y-94564188D01*
X96288571Y-94564188D02*
X96260000Y-94507045D01*
X96260000Y-94507045D02*
X96202857Y-94449902D01*
X96202857Y-94449902D02*
X96117143Y-94421331D01*
X96117143Y-94421331D02*
X96060000Y-94421331D01*
X96060000Y-94421331D02*
X95974286Y-94449902D01*
X95974286Y-94449902D02*
X95945714Y-94478474D01*
X95374286Y-95021331D02*
X95717143Y-95021331D01*
X95545714Y-95021331D02*
X95545714Y-94421331D01*
X95545714Y-94421331D02*
X95602857Y-94507045D01*
X95602857Y-94507045D02*
X95660000Y-94564188D01*
X95660000Y-94564188D02*
X95717143Y-94592760D01*
X95174285Y-94421331D02*
X94802857Y-94421331D01*
X94802857Y-94421331D02*
X95002857Y-94649902D01*
X95002857Y-94649902D02*
X94917142Y-94649902D01*
X94917142Y-94649902D02*
X94860000Y-94678474D01*
X94860000Y-94678474D02*
X94831428Y-94707045D01*
X94831428Y-94707045D02*
X94802857Y-94764188D01*
X94802857Y-94764188D02*
X94802857Y-94907045D01*
X94802857Y-94907045D02*
X94831428Y-94964188D01*
X94831428Y-94964188D02*
X94860000Y-94992760D01*
X94860000Y-94992760D02*
X94917142Y-95021331D01*
X94917142Y-95021331D02*
X95088571Y-95021331D01*
X95088571Y-95021331D02*
X95145714Y-94992760D01*
X95145714Y-94992760D02*
X95174285Y-94964188D01*
X95659999Y-90164188D02*
X95688571Y-90192760D01*
X95688571Y-90192760D02*
X95774285Y-90221331D01*
X95774285Y-90221331D02*
X95831428Y-90221331D01*
X95831428Y-90221331D02*
X95917142Y-90192760D01*
X95917142Y-90192760D02*
X95974285Y-90135617D01*
X95974285Y-90135617D02*
X96002856Y-90078474D01*
X96002856Y-90078474D02*
X96031428Y-89964188D01*
X96031428Y-89964188D02*
X96031428Y-89878474D01*
X96031428Y-89878474D02*
X96002856Y-89764188D01*
X96002856Y-89764188D02*
X95974285Y-89707045D01*
X95974285Y-89707045D02*
X95917142Y-89649902D01*
X95917142Y-89649902D02*
X95831428Y-89621331D01*
X95831428Y-89621331D02*
X95774285Y-89621331D01*
X95774285Y-89621331D02*
X95688571Y-89649902D01*
X95688571Y-89649902D02*
X95659999Y-89678474D01*
X95145714Y-89621331D02*
X95259999Y-89621331D01*
X95259999Y-89621331D02*
X95317142Y-89649902D01*
X95317142Y-89649902D02*
X95345714Y-89678474D01*
X95345714Y-89678474D02*
X95402856Y-89764188D01*
X95402856Y-89764188D02*
X95431428Y-89878474D01*
X95431428Y-89878474D02*
X95431428Y-90107045D01*
X95431428Y-90107045D02*
X95402856Y-90164188D01*
X95402856Y-90164188D02*
X95374285Y-90192760D01*
X95374285Y-90192760D02*
X95317142Y-90221331D01*
X95317142Y-90221331D02*
X95202856Y-90221331D01*
X95202856Y-90221331D02*
X95145714Y-90192760D01*
X95145714Y-90192760D02*
X95117142Y-90164188D01*
X95117142Y-90164188D02*
X95088571Y-90107045D01*
X95088571Y-90107045D02*
X95088571Y-89964188D01*
X95088571Y-89964188D02*
X95117142Y-89907045D01*
X95117142Y-89907045D02*
X95145714Y-89878474D01*
X95145714Y-89878474D02*
X95202856Y-89849902D01*
X95202856Y-89849902D02*
X95317142Y-89849902D01*
X95317142Y-89849902D02*
X95374285Y-89878474D01*
X95374285Y-89878474D02*
X95402856Y-89907045D01*
X95402856Y-89907045D02*
X95431428Y-89964188D01*
X95945714Y-104564188D02*
X95974286Y-104592760D01*
X95974286Y-104592760D02*
X96060000Y-104621331D01*
X96060000Y-104621331D02*
X96117143Y-104621331D01*
X96117143Y-104621331D02*
X96202857Y-104592760D01*
X96202857Y-104592760D02*
X96260000Y-104535617D01*
X96260000Y-104535617D02*
X96288571Y-104478474D01*
X96288571Y-104478474D02*
X96317143Y-104364188D01*
X96317143Y-104364188D02*
X96317143Y-104278474D01*
X96317143Y-104278474D02*
X96288571Y-104164188D01*
X96288571Y-104164188D02*
X96260000Y-104107045D01*
X96260000Y-104107045D02*
X96202857Y-104049902D01*
X96202857Y-104049902D02*
X96117143Y-104021331D01*
X96117143Y-104021331D02*
X96060000Y-104021331D01*
X96060000Y-104021331D02*
X95974286Y-104049902D01*
X95974286Y-104049902D02*
X95945714Y-104078474D01*
X95745714Y-104021331D02*
X95374286Y-104021331D01*
X95374286Y-104021331D02*
X95574286Y-104249902D01*
X95574286Y-104249902D02*
X95488571Y-104249902D01*
X95488571Y-104249902D02*
X95431429Y-104278474D01*
X95431429Y-104278474D02*
X95402857Y-104307045D01*
X95402857Y-104307045D02*
X95374286Y-104364188D01*
X95374286Y-104364188D02*
X95374286Y-104507045D01*
X95374286Y-104507045D02*
X95402857Y-104564188D01*
X95402857Y-104564188D02*
X95431429Y-104592760D01*
X95431429Y-104592760D02*
X95488571Y-104621331D01*
X95488571Y-104621331D02*
X95660000Y-104621331D01*
X95660000Y-104621331D02*
X95717143Y-104592760D01*
X95717143Y-104592760D02*
X95745714Y-104564188D01*
X95174285Y-104021331D02*
X94774285Y-104021331D01*
X94774285Y-104021331D02*
X95031428Y-104621331D01*
X95945714Y-102964188D02*
X95974286Y-102992760D01*
X95974286Y-102992760D02*
X96060000Y-103021331D01*
X96060000Y-103021331D02*
X96117143Y-103021331D01*
X96117143Y-103021331D02*
X96202857Y-102992760D01*
X96202857Y-102992760D02*
X96260000Y-102935617D01*
X96260000Y-102935617D02*
X96288571Y-102878474D01*
X96288571Y-102878474D02*
X96317143Y-102764188D01*
X96317143Y-102764188D02*
X96317143Y-102678474D01*
X96317143Y-102678474D02*
X96288571Y-102564188D01*
X96288571Y-102564188D02*
X96260000Y-102507045D01*
X96260000Y-102507045D02*
X96202857Y-102449902D01*
X96202857Y-102449902D02*
X96117143Y-102421331D01*
X96117143Y-102421331D02*
X96060000Y-102421331D01*
X96060000Y-102421331D02*
X95974286Y-102449902D01*
X95974286Y-102449902D02*
X95945714Y-102478474D01*
X95745714Y-102421331D02*
X95374286Y-102421331D01*
X95374286Y-102421331D02*
X95574286Y-102649902D01*
X95574286Y-102649902D02*
X95488571Y-102649902D01*
X95488571Y-102649902D02*
X95431429Y-102678474D01*
X95431429Y-102678474D02*
X95402857Y-102707045D01*
X95402857Y-102707045D02*
X95374286Y-102764188D01*
X95374286Y-102764188D02*
X95374286Y-102907045D01*
X95374286Y-102907045D02*
X95402857Y-102964188D01*
X95402857Y-102964188D02*
X95431429Y-102992760D01*
X95431429Y-102992760D02*
X95488571Y-103021331D01*
X95488571Y-103021331D02*
X95660000Y-103021331D01*
X95660000Y-103021331D02*
X95717143Y-102992760D01*
X95717143Y-102992760D02*
X95745714Y-102964188D01*
X94860000Y-102421331D02*
X94974285Y-102421331D01*
X94974285Y-102421331D02*
X95031428Y-102449902D01*
X95031428Y-102449902D02*
X95060000Y-102478474D01*
X95060000Y-102478474D02*
X95117142Y-102564188D01*
X95117142Y-102564188D02*
X95145714Y-102678474D01*
X95145714Y-102678474D02*
X95145714Y-102907045D01*
X95145714Y-102907045D02*
X95117142Y-102964188D01*
X95117142Y-102964188D02*
X95088571Y-102992760D01*
X95088571Y-102992760D02*
X95031428Y-103021331D01*
X95031428Y-103021331D02*
X94917142Y-103021331D01*
X94917142Y-103021331D02*
X94860000Y-102992760D01*
X94860000Y-102992760D02*
X94831428Y-102964188D01*
X94831428Y-102964188D02*
X94802857Y-102907045D01*
X94802857Y-102907045D02*
X94802857Y-102764188D01*
X94802857Y-102764188D02*
X94831428Y-102707045D01*
X94831428Y-102707045D02*
X94860000Y-102678474D01*
X94860000Y-102678474D02*
X94917142Y-102649902D01*
X94917142Y-102649902D02*
X95031428Y-102649902D01*
X95031428Y-102649902D02*
X95088571Y-102678474D01*
X95088571Y-102678474D02*
X95117142Y-102707045D01*
X95117142Y-102707045D02*
X95145714Y-102764188D01*
X103135714Y-97314188D02*
X103164286Y-97342760D01*
X103164286Y-97342760D02*
X103250000Y-97371331D01*
X103250000Y-97371331D02*
X103307143Y-97371331D01*
X103307143Y-97371331D02*
X103392857Y-97342760D01*
X103392857Y-97342760D02*
X103450000Y-97285617D01*
X103450000Y-97285617D02*
X103478571Y-97228474D01*
X103478571Y-97228474D02*
X103507143Y-97114188D01*
X103507143Y-97114188D02*
X103507143Y-97028474D01*
X103507143Y-97028474D02*
X103478571Y-96914188D01*
X103478571Y-96914188D02*
X103450000Y-96857045D01*
X103450000Y-96857045D02*
X103392857Y-96799902D01*
X103392857Y-96799902D02*
X103307143Y-96771331D01*
X103307143Y-96771331D02*
X103250000Y-96771331D01*
X103250000Y-96771331D02*
X103164286Y-96799902D01*
X103164286Y-96799902D02*
X103135714Y-96828474D01*
X102907143Y-96828474D02*
X102878571Y-96799902D01*
X102878571Y-96799902D02*
X102821429Y-96771331D01*
X102821429Y-96771331D02*
X102678571Y-96771331D01*
X102678571Y-96771331D02*
X102621429Y-96799902D01*
X102621429Y-96799902D02*
X102592857Y-96828474D01*
X102592857Y-96828474D02*
X102564286Y-96885617D01*
X102564286Y-96885617D02*
X102564286Y-96942760D01*
X102564286Y-96942760D02*
X102592857Y-97028474D01*
X102592857Y-97028474D02*
X102935714Y-97371331D01*
X102935714Y-97371331D02*
X102564286Y-97371331D01*
X102021428Y-96771331D02*
X102307142Y-96771331D01*
X102307142Y-96771331D02*
X102335714Y-97057045D01*
X102335714Y-97057045D02*
X102307142Y-97028474D01*
X102307142Y-97028474D02*
X102250000Y-96999902D01*
X102250000Y-96999902D02*
X102107142Y-96999902D01*
X102107142Y-96999902D02*
X102050000Y-97028474D01*
X102050000Y-97028474D02*
X102021428Y-97057045D01*
X102021428Y-97057045D02*
X101992857Y-97114188D01*
X101992857Y-97114188D02*
X101992857Y-97257045D01*
X101992857Y-97257045D02*
X102021428Y-97314188D01*
X102021428Y-97314188D02*
X102050000Y-97342760D01*
X102050000Y-97342760D02*
X102107142Y-97371331D01*
X102107142Y-97371331D02*
X102250000Y-97371331D01*
X102250000Y-97371331D02*
X102307142Y-97342760D01*
X102307142Y-97342760D02*
X102335714Y-97314188D01*
X98422856Y-78301331D02*
X98422856Y-77701331D01*
X98422856Y-77701331D02*
X98279999Y-77701331D01*
X98279999Y-77701331D02*
X98194285Y-77729902D01*
X98194285Y-77729902D02*
X98137142Y-77787045D01*
X98137142Y-77787045D02*
X98108571Y-77844188D01*
X98108571Y-77844188D02*
X98079999Y-77958474D01*
X98079999Y-77958474D02*
X98079999Y-78044188D01*
X98079999Y-78044188D02*
X98108571Y-78158474D01*
X98108571Y-78158474D02*
X98137142Y-78215617D01*
X98137142Y-78215617D02*
X98194285Y-78272760D01*
X98194285Y-78272760D02*
X98279999Y-78301331D01*
X98279999Y-78301331D02*
X98422856Y-78301331D01*
X97879999Y-77701331D02*
X97508571Y-77701331D01*
X97508571Y-77701331D02*
X97708571Y-77929902D01*
X97708571Y-77929902D02*
X97622856Y-77929902D01*
X97622856Y-77929902D02*
X97565714Y-77958474D01*
X97565714Y-77958474D02*
X97537142Y-77987045D01*
X97537142Y-77987045D02*
X97508571Y-78044188D01*
X97508571Y-78044188D02*
X97508571Y-78187045D01*
X97508571Y-78187045D02*
X97537142Y-78244188D01*
X97537142Y-78244188D02*
X97565714Y-78272760D01*
X97565714Y-78272760D02*
X97622856Y-78301331D01*
X97622856Y-78301331D02*
X97794285Y-78301331D01*
X97794285Y-78301331D02*
X97851428Y-78272760D01*
X97851428Y-78272760D02*
X97879999Y-78244188D01*
X95945714Y-101364188D02*
X95974286Y-101392760D01*
X95974286Y-101392760D02*
X96060000Y-101421331D01*
X96060000Y-101421331D02*
X96117143Y-101421331D01*
X96117143Y-101421331D02*
X96202857Y-101392760D01*
X96202857Y-101392760D02*
X96260000Y-101335617D01*
X96260000Y-101335617D02*
X96288571Y-101278474D01*
X96288571Y-101278474D02*
X96317143Y-101164188D01*
X96317143Y-101164188D02*
X96317143Y-101078474D01*
X96317143Y-101078474D02*
X96288571Y-100964188D01*
X96288571Y-100964188D02*
X96260000Y-100907045D01*
X96260000Y-100907045D02*
X96202857Y-100849902D01*
X96202857Y-100849902D02*
X96117143Y-100821331D01*
X96117143Y-100821331D02*
X96060000Y-100821331D01*
X96060000Y-100821331D02*
X95974286Y-100849902D01*
X95974286Y-100849902D02*
X95945714Y-100878474D01*
X95745714Y-100821331D02*
X95374286Y-100821331D01*
X95374286Y-100821331D02*
X95574286Y-101049902D01*
X95574286Y-101049902D02*
X95488571Y-101049902D01*
X95488571Y-101049902D02*
X95431429Y-101078474D01*
X95431429Y-101078474D02*
X95402857Y-101107045D01*
X95402857Y-101107045D02*
X95374286Y-101164188D01*
X95374286Y-101164188D02*
X95374286Y-101307045D01*
X95374286Y-101307045D02*
X95402857Y-101364188D01*
X95402857Y-101364188D02*
X95431429Y-101392760D01*
X95431429Y-101392760D02*
X95488571Y-101421331D01*
X95488571Y-101421331D02*
X95660000Y-101421331D01*
X95660000Y-101421331D02*
X95717143Y-101392760D01*
X95717143Y-101392760D02*
X95745714Y-101364188D01*
X94831428Y-100821331D02*
X95117142Y-100821331D01*
X95117142Y-100821331D02*
X95145714Y-101107045D01*
X95145714Y-101107045D02*
X95117142Y-101078474D01*
X95117142Y-101078474D02*
X95060000Y-101049902D01*
X95060000Y-101049902D02*
X94917142Y-101049902D01*
X94917142Y-101049902D02*
X94860000Y-101078474D01*
X94860000Y-101078474D02*
X94831428Y-101107045D01*
X94831428Y-101107045D02*
X94802857Y-101164188D01*
X94802857Y-101164188D02*
X94802857Y-101307045D01*
X94802857Y-101307045D02*
X94831428Y-101364188D01*
X94831428Y-101364188D02*
X94860000Y-101392760D01*
X94860000Y-101392760D02*
X94917142Y-101421331D01*
X94917142Y-101421331D02*
X95060000Y-101421331D01*
X95060000Y-101421331D02*
X95117142Y-101392760D01*
X95117142Y-101392760D02*
X95145714Y-101364188D01*
X103135714Y-102114188D02*
X103164286Y-102142760D01*
X103164286Y-102142760D02*
X103250000Y-102171331D01*
X103250000Y-102171331D02*
X103307143Y-102171331D01*
X103307143Y-102171331D02*
X103392857Y-102142760D01*
X103392857Y-102142760D02*
X103450000Y-102085617D01*
X103450000Y-102085617D02*
X103478571Y-102028474D01*
X103478571Y-102028474D02*
X103507143Y-101914188D01*
X103507143Y-101914188D02*
X103507143Y-101828474D01*
X103507143Y-101828474D02*
X103478571Y-101714188D01*
X103478571Y-101714188D02*
X103450000Y-101657045D01*
X103450000Y-101657045D02*
X103392857Y-101599902D01*
X103392857Y-101599902D02*
X103307143Y-101571331D01*
X103307143Y-101571331D02*
X103250000Y-101571331D01*
X103250000Y-101571331D02*
X103164286Y-101599902D01*
X103164286Y-101599902D02*
X103135714Y-101628474D01*
X102935714Y-101571331D02*
X102564286Y-101571331D01*
X102564286Y-101571331D02*
X102764286Y-101799902D01*
X102764286Y-101799902D02*
X102678571Y-101799902D01*
X102678571Y-101799902D02*
X102621429Y-101828474D01*
X102621429Y-101828474D02*
X102592857Y-101857045D01*
X102592857Y-101857045D02*
X102564286Y-101914188D01*
X102564286Y-101914188D02*
X102564286Y-102057045D01*
X102564286Y-102057045D02*
X102592857Y-102114188D01*
X102592857Y-102114188D02*
X102621429Y-102142760D01*
X102621429Y-102142760D02*
X102678571Y-102171331D01*
X102678571Y-102171331D02*
X102850000Y-102171331D01*
X102850000Y-102171331D02*
X102907143Y-102142760D01*
X102907143Y-102142760D02*
X102935714Y-102114188D01*
X102192857Y-101571331D02*
X102135714Y-101571331D01*
X102135714Y-101571331D02*
X102078571Y-101599902D01*
X102078571Y-101599902D02*
X102050000Y-101628474D01*
X102050000Y-101628474D02*
X102021428Y-101685617D01*
X102021428Y-101685617D02*
X101992857Y-101799902D01*
X101992857Y-101799902D02*
X101992857Y-101942760D01*
X101992857Y-101942760D02*
X102021428Y-102057045D01*
X102021428Y-102057045D02*
X102050000Y-102114188D01*
X102050000Y-102114188D02*
X102078571Y-102142760D01*
X102078571Y-102142760D02*
X102135714Y-102171331D01*
X102135714Y-102171331D02*
X102192857Y-102171331D01*
X102192857Y-102171331D02*
X102250000Y-102142760D01*
X102250000Y-102142760D02*
X102278571Y-102114188D01*
X102278571Y-102114188D02*
X102307142Y-102057045D01*
X102307142Y-102057045D02*
X102335714Y-101942760D01*
X102335714Y-101942760D02*
X102335714Y-101799902D01*
X102335714Y-101799902D02*
X102307142Y-101685617D01*
X102307142Y-101685617D02*
X102278571Y-101628474D01*
X102278571Y-101628474D02*
X102250000Y-101599902D01*
X102250000Y-101599902D02*
X102192857Y-101571331D01*
X103135714Y-103714188D02*
X103164286Y-103742760D01*
X103164286Y-103742760D02*
X103250000Y-103771331D01*
X103250000Y-103771331D02*
X103307143Y-103771331D01*
X103307143Y-103771331D02*
X103392857Y-103742760D01*
X103392857Y-103742760D02*
X103450000Y-103685617D01*
X103450000Y-103685617D02*
X103478571Y-103628474D01*
X103478571Y-103628474D02*
X103507143Y-103514188D01*
X103507143Y-103514188D02*
X103507143Y-103428474D01*
X103507143Y-103428474D02*
X103478571Y-103314188D01*
X103478571Y-103314188D02*
X103450000Y-103257045D01*
X103450000Y-103257045D02*
X103392857Y-103199902D01*
X103392857Y-103199902D02*
X103307143Y-103171331D01*
X103307143Y-103171331D02*
X103250000Y-103171331D01*
X103250000Y-103171331D02*
X103164286Y-103199902D01*
X103164286Y-103199902D02*
X103135714Y-103228474D01*
X102935714Y-103171331D02*
X102564286Y-103171331D01*
X102564286Y-103171331D02*
X102764286Y-103399902D01*
X102764286Y-103399902D02*
X102678571Y-103399902D01*
X102678571Y-103399902D02*
X102621429Y-103428474D01*
X102621429Y-103428474D02*
X102592857Y-103457045D01*
X102592857Y-103457045D02*
X102564286Y-103514188D01*
X102564286Y-103514188D02*
X102564286Y-103657045D01*
X102564286Y-103657045D02*
X102592857Y-103714188D01*
X102592857Y-103714188D02*
X102621429Y-103742760D01*
X102621429Y-103742760D02*
X102678571Y-103771331D01*
X102678571Y-103771331D02*
X102850000Y-103771331D01*
X102850000Y-103771331D02*
X102907143Y-103742760D01*
X102907143Y-103742760D02*
X102935714Y-103714188D01*
X101992857Y-103771331D02*
X102335714Y-103771331D01*
X102164285Y-103771331D02*
X102164285Y-103171331D01*
X102164285Y-103171331D02*
X102221428Y-103257045D01*
X102221428Y-103257045D02*
X102278571Y-103314188D01*
X102278571Y-103314188D02*
X102335714Y-103342760D01*
X103145714Y-105324188D02*
X103174286Y-105352760D01*
X103174286Y-105352760D02*
X103260000Y-105381331D01*
X103260000Y-105381331D02*
X103317143Y-105381331D01*
X103317143Y-105381331D02*
X103402857Y-105352760D01*
X103402857Y-105352760D02*
X103460000Y-105295617D01*
X103460000Y-105295617D02*
X103488571Y-105238474D01*
X103488571Y-105238474D02*
X103517143Y-105124188D01*
X103517143Y-105124188D02*
X103517143Y-105038474D01*
X103517143Y-105038474D02*
X103488571Y-104924188D01*
X103488571Y-104924188D02*
X103460000Y-104867045D01*
X103460000Y-104867045D02*
X103402857Y-104809902D01*
X103402857Y-104809902D02*
X103317143Y-104781331D01*
X103317143Y-104781331D02*
X103260000Y-104781331D01*
X103260000Y-104781331D02*
X103174286Y-104809902D01*
X103174286Y-104809902D02*
X103145714Y-104838474D01*
X102945714Y-104781331D02*
X102574286Y-104781331D01*
X102574286Y-104781331D02*
X102774286Y-105009902D01*
X102774286Y-105009902D02*
X102688571Y-105009902D01*
X102688571Y-105009902D02*
X102631429Y-105038474D01*
X102631429Y-105038474D02*
X102602857Y-105067045D01*
X102602857Y-105067045D02*
X102574286Y-105124188D01*
X102574286Y-105124188D02*
X102574286Y-105267045D01*
X102574286Y-105267045D02*
X102602857Y-105324188D01*
X102602857Y-105324188D02*
X102631429Y-105352760D01*
X102631429Y-105352760D02*
X102688571Y-105381331D01*
X102688571Y-105381331D02*
X102860000Y-105381331D01*
X102860000Y-105381331D02*
X102917143Y-105352760D01*
X102917143Y-105352760D02*
X102945714Y-105324188D01*
X102345714Y-104838474D02*
X102317142Y-104809902D01*
X102317142Y-104809902D02*
X102260000Y-104781331D01*
X102260000Y-104781331D02*
X102117142Y-104781331D01*
X102117142Y-104781331D02*
X102060000Y-104809902D01*
X102060000Y-104809902D02*
X102031428Y-104838474D01*
X102031428Y-104838474D02*
X102002857Y-104895617D01*
X102002857Y-104895617D02*
X102002857Y-104952760D01*
X102002857Y-104952760D02*
X102031428Y-105038474D01*
X102031428Y-105038474D02*
X102374285Y-105381331D01*
X102374285Y-105381331D02*
X102002857Y-105381331D01*
X95945714Y-93364188D02*
X95974286Y-93392760D01*
X95974286Y-93392760D02*
X96060000Y-93421331D01*
X96060000Y-93421331D02*
X96117143Y-93421331D01*
X96117143Y-93421331D02*
X96202857Y-93392760D01*
X96202857Y-93392760D02*
X96260000Y-93335617D01*
X96260000Y-93335617D02*
X96288571Y-93278474D01*
X96288571Y-93278474D02*
X96317143Y-93164188D01*
X96317143Y-93164188D02*
X96317143Y-93078474D01*
X96317143Y-93078474D02*
X96288571Y-92964188D01*
X96288571Y-92964188D02*
X96260000Y-92907045D01*
X96260000Y-92907045D02*
X96202857Y-92849902D01*
X96202857Y-92849902D02*
X96117143Y-92821331D01*
X96117143Y-92821331D02*
X96060000Y-92821331D01*
X96060000Y-92821331D02*
X95974286Y-92849902D01*
X95974286Y-92849902D02*
X95945714Y-92878474D01*
X95374286Y-93421331D02*
X95717143Y-93421331D01*
X95545714Y-93421331D02*
X95545714Y-92821331D01*
X95545714Y-92821331D02*
X95602857Y-92907045D01*
X95602857Y-92907045D02*
X95660000Y-92964188D01*
X95660000Y-92964188D02*
X95717143Y-92992760D01*
X95145714Y-92878474D02*
X95117142Y-92849902D01*
X95117142Y-92849902D02*
X95060000Y-92821331D01*
X95060000Y-92821331D02*
X94917142Y-92821331D01*
X94917142Y-92821331D02*
X94860000Y-92849902D01*
X94860000Y-92849902D02*
X94831428Y-92878474D01*
X94831428Y-92878474D02*
X94802857Y-92935617D01*
X94802857Y-92935617D02*
X94802857Y-92992760D01*
X94802857Y-92992760D02*
X94831428Y-93078474D01*
X94831428Y-93078474D02*
X95174285Y-93421331D01*
X95174285Y-93421331D02*
X94802857Y-93421331D01*
X95659999Y-91764188D02*
X95688571Y-91792760D01*
X95688571Y-91792760D02*
X95774285Y-91821331D01*
X95774285Y-91821331D02*
X95831428Y-91821331D01*
X95831428Y-91821331D02*
X95917142Y-91792760D01*
X95917142Y-91792760D02*
X95974285Y-91735617D01*
X95974285Y-91735617D02*
X96002856Y-91678474D01*
X96002856Y-91678474D02*
X96031428Y-91564188D01*
X96031428Y-91564188D02*
X96031428Y-91478474D01*
X96031428Y-91478474D02*
X96002856Y-91364188D01*
X96002856Y-91364188D02*
X95974285Y-91307045D01*
X95974285Y-91307045D02*
X95917142Y-91249902D01*
X95917142Y-91249902D02*
X95831428Y-91221331D01*
X95831428Y-91221331D02*
X95774285Y-91221331D01*
X95774285Y-91221331D02*
X95688571Y-91249902D01*
X95688571Y-91249902D02*
X95659999Y-91278474D01*
X95374285Y-91821331D02*
X95259999Y-91821331D01*
X95259999Y-91821331D02*
X95202856Y-91792760D01*
X95202856Y-91792760D02*
X95174285Y-91764188D01*
X95174285Y-91764188D02*
X95117142Y-91678474D01*
X95117142Y-91678474D02*
X95088571Y-91564188D01*
X95088571Y-91564188D02*
X95088571Y-91335617D01*
X95088571Y-91335617D02*
X95117142Y-91278474D01*
X95117142Y-91278474D02*
X95145714Y-91249902D01*
X95145714Y-91249902D02*
X95202856Y-91221331D01*
X95202856Y-91221331D02*
X95317142Y-91221331D01*
X95317142Y-91221331D02*
X95374285Y-91249902D01*
X95374285Y-91249902D02*
X95402856Y-91278474D01*
X95402856Y-91278474D02*
X95431428Y-91335617D01*
X95431428Y-91335617D02*
X95431428Y-91478474D01*
X95431428Y-91478474D02*
X95402856Y-91535617D01*
X95402856Y-91535617D02*
X95374285Y-91564188D01*
X95374285Y-91564188D02*
X95317142Y-91592760D01*
X95317142Y-91592760D02*
X95202856Y-91592760D01*
X95202856Y-91592760D02*
X95145714Y-91564188D01*
X95145714Y-91564188D02*
X95117142Y-91535617D01*
X95117142Y-91535617D02*
X95088571Y-91478474D01*
X103135714Y-100514188D02*
X103164286Y-100542760D01*
X103164286Y-100542760D02*
X103250000Y-100571331D01*
X103250000Y-100571331D02*
X103307143Y-100571331D01*
X103307143Y-100571331D02*
X103392857Y-100542760D01*
X103392857Y-100542760D02*
X103450000Y-100485617D01*
X103450000Y-100485617D02*
X103478571Y-100428474D01*
X103478571Y-100428474D02*
X103507143Y-100314188D01*
X103507143Y-100314188D02*
X103507143Y-100228474D01*
X103507143Y-100228474D02*
X103478571Y-100114188D01*
X103478571Y-100114188D02*
X103450000Y-100057045D01*
X103450000Y-100057045D02*
X103392857Y-99999902D01*
X103392857Y-99999902D02*
X103307143Y-99971331D01*
X103307143Y-99971331D02*
X103250000Y-99971331D01*
X103250000Y-99971331D02*
X103164286Y-99999902D01*
X103164286Y-99999902D02*
X103135714Y-100028474D01*
X102907143Y-100028474D02*
X102878571Y-99999902D01*
X102878571Y-99999902D02*
X102821429Y-99971331D01*
X102821429Y-99971331D02*
X102678571Y-99971331D01*
X102678571Y-99971331D02*
X102621429Y-99999902D01*
X102621429Y-99999902D02*
X102592857Y-100028474D01*
X102592857Y-100028474D02*
X102564286Y-100085617D01*
X102564286Y-100085617D02*
X102564286Y-100142760D01*
X102564286Y-100142760D02*
X102592857Y-100228474D01*
X102592857Y-100228474D02*
X102935714Y-100571331D01*
X102935714Y-100571331D02*
X102564286Y-100571331D01*
X102221428Y-100228474D02*
X102278571Y-100199902D01*
X102278571Y-100199902D02*
X102307142Y-100171331D01*
X102307142Y-100171331D02*
X102335714Y-100114188D01*
X102335714Y-100114188D02*
X102335714Y-100085617D01*
X102335714Y-100085617D02*
X102307142Y-100028474D01*
X102307142Y-100028474D02*
X102278571Y-99999902D01*
X102278571Y-99999902D02*
X102221428Y-99971331D01*
X102221428Y-99971331D02*
X102107142Y-99971331D01*
X102107142Y-99971331D02*
X102050000Y-99999902D01*
X102050000Y-99999902D02*
X102021428Y-100028474D01*
X102021428Y-100028474D02*
X101992857Y-100085617D01*
X101992857Y-100085617D02*
X101992857Y-100114188D01*
X101992857Y-100114188D02*
X102021428Y-100171331D01*
X102021428Y-100171331D02*
X102050000Y-100199902D01*
X102050000Y-100199902D02*
X102107142Y-100228474D01*
X102107142Y-100228474D02*
X102221428Y-100228474D01*
X102221428Y-100228474D02*
X102278571Y-100257045D01*
X102278571Y-100257045D02*
X102307142Y-100285617D01*
X102307142Y-100285617D02*
X102335714Y-100342760D01*
X102335714Y-100342760D02*
X102335714Y-100457045D01*
X102335714Y-100457045D02*
X102307142Y-100514188D01*
X102307142Y-100514188D02*
X102278571Y-100542760D01*
X102278571Y-100542760D02*
X102221428Y-100571331D01*
X102221428Y-100571331D02*
X102107142Y-100571331D01*
X102107142Y-100571331D02*
X102050000Y-100542760D01*
X102050000Y-100542760D02*
X102021428Y-100514188D01*
X102021428Y-100514188D02*
X101992857Y-100457045D01*
X101992857Y-100457045D02*
X101992857Y-100342760D01*
X101992857Y-100342760D02*
X102021428Y-100285617D01*
X102021428Y-100285617D02*
X102050000Y-100257045D01*
X102050000Y-100257045D02*
X102107142Y-100228474D01*
X103135714Y-92514188D02*
X103164286Y-92542760D01*
X103164286Y-92542760D02*
X103250000Y-92571331D01*
X103250000Y-92571331D02*
X103307143Y-92571331D01*
X103307143Y-92571331D02*
X103392857Y-92542760D01*
X103392857Y-92542760D02*
X103450000Y-92485617D01*
X103450000Y-92485617D02*
X103478571Y-92428474D01*
X103478571Y-92428474D02*
X103507143Y-92314188D01*
X103507143Y-92314188D02*
X103507143Y-92228474D01*
X103507143Y-92228474D02*
X103478571Y-92114188D01*
X103478571Y-92114188D02*
X103450000Y-92057045D01*
X103450000Y-92057045D02*
X103392857Y-91999902D01*
X103392857Y-91999902D02*
X103307143Y-91971331D01*
X103307143Y-91971331D02*
X103250000Y-91971331D01*
X103250000Y-91971331D02*
X103164286Y-91999902D01*
X103164286Y-91999902D02*
X103135714Y-92028474D01*
X102564286Y-92571331D02*
X102907143Y-92571331D01*
X102735714Y-92571331D02*
X102735714Y-91971331D01*
X102735714Y-91971331D02*
X102792857Y-92057045D01*
X102792857Y-92057045D02*
X102850000Y-92114188D01*
X102850000Y-92114188D02*
X102907143Y-92142760D01*
X102278571Y-92571331D02*
X102164285Y-92571331D01*
X102164285Y-92571331D02*
X102107142Y-92542760D01*
X102107142Y-92542760D02*
X102078571Y-92514188D01*
X102078571Y-92514188D02*
X102021428Y-92428474D01*
X102021428Y-92428474D02*
X101992857Y-92314188D01*
X101992857Y-92314188D02*
X101992857Y-92085617D01*
X101992857Y-92085617D02*
X102021428Y-92028474D01*
X102021428Y-92028474D02*
X102050000Y-91999902D01*
X102050000Y-91999902D02*
X102107142Y-91971331D01*
X102107142Y-91971331D02*
X102221428Y-91971331D01*
X102221428Y-91971331D02*
X102278571Y-91999902D01*
X102278571Y-91999902D02*
X102307142Y-92028474D01*
X102307142Y-92028474D02*
X102335714Y-92085617D01*
X102335714Y-92085617D02*
X102335714Y-92228474D01*
X102335714Y-92228474D02*
X102307142Y-92285617D01*
X102307142Y-92285617D02*
X102278571Y-92314188D01*
X102278571Y-92314188D02*
X102221428Y-92342760D01*
X102221428Y-92342760D02*
X102107142Y-92342760D01*
X102107142Y-92342760D02*
X102050000Y-92314188D01*
X102050000Y-92314188D02*
X102021428Y-92285617D01*
X102021428Y-92285617D02*
X101992857Y-92228474D01*
X95945714Y-98164188D02*
X95974286Y-98192760D01*
X95974286Y-98192760D02*
X96060000Y-98221331D01*
X96060000Y-98221331D02*
X96117143Y-98221331D01*
X96117143Y-98221331D02*
X96202857Y-98192760D01*
X96202857Y-98192760D02*
X96260000Y-98135617D01*
X96260000Y-98135617D02*
X96288571Y-98078474D01*
X96288571Y-98078474D02*
X96317143Y-97964188D01*
X96317143Y-97964188D02*
X96317143Y-97878474D01*
X96317143Y-97878474D02*
X96288571Y-97764188D01*
X96288571Y-97764188D02*
X96260000Y-97707045D01*
X96260000Y-97707045D02*
X96202857Y-97649902D01*
X96202857Y-97649902D02*
X96117143Y-97621331D01*
X96117143Y-97621331D02*
X96060000Y-97621331D01*
X96060000Y-97621331D02*
X95974286Y-97649902D01*
X95974286Y-97649902D02*
X95945714Y-97678474D01*
X95745714Y-97621331D02*
X95374286Y-97621331D01*
X95374286Y-97621331D02*
X95574286Y-97849902D01*
X95574286Y-97849902D02*
X95488571Y-97849902D01*
X95488571Y-97849902D02*
X95431429Y-97878474D01*
X95431429Y-97878474D02*
X95402857Y-97907045D01*
X95402857Y-97907045D02*
X95374286Y-97964188D01*
X95374286Y-97964188D02*
X95374286Y-98107045D01*
X95374286Y-98107045D02*
X95402857Y-98164188D01*
X95402857Y-98164188D02*
X95431429Y-98192760D01*
X95431429Y-98192760D02*
X95488571Y-98221331D01*
X95488571Y-98221331D02*
X95660000Y-98221331D01*
X95660000Y-98221331D02*
X95717143Y-98192760D01*
X95717143Y-98192760D02*
X95745714Y-98164188D01*
X95174285Y-97621331D02*
X94802857Y-97621331D01*
X94802857Y-97621331D02*
X95002857Y-97849902D01*
X95002857Y-97849902D02*
X94917142Y-97849902D01*
X94917142Y-97849902D02*
X94860000Y-97878474D01*
X94860000Y-97878474D02*
X94831428Y-97907045D01*
X94831428Y-97907045D02*
X94802857Y-97964188D01*
X94802857Y-97964188D02*
X94802857Y-98107045D01*
X94802857Y-98107045D02*
X94831428Y-98164188D01*
X94831428Y-98164188D02*
X94860000Y-98192760D01*
X94860000Y-98192760D02*
X94917142Y-98221331D01*
X94917142Y-98221331D02*
X95088571Y-98221331D01*
X95088571Y-98221331D02*
X95145714Y-98192760D01*
X95145714Y-98192760D02*
X95174285Y-98164188D01*
X103135714Y-98914188D02*
X103164286Y-98942760D01*
X103164286Y-98942760D02*
X103250000Y-98971331D01*
X103250000Y-98971331D02*
X103307143Y-98971331D01*
X103307143Y-98971331D02*
X103392857Y-98942760D01*
X103392857Y-98942760D02*
X103450000Y-98885617D01*
X103450000Y-98885617D02*
X103478571Y-98828474D01*
X103478571Y-98828474D02*
X103507143Y-98714188D01*
X103507143Y-98714188D02*
X103507143Y-98628474D01*
X103507143Y-98628474D02*
X103478571Y-98514188D01*
X103478571Y-98514188D02*
X103450000Y-98457045D01*
X103450000Y-98457045D02*
X103392857Y-98399902D01*
X103392857Y-98399902D02*
X103307143Y-98371331D01*
X103307143Y-98371331D02*
X103250000Y-98371331D01*
X103250000Y-98371331D02*
X103164286Y-98399902D01*
X103164286Y-98399902D02*
X103135714Y-98428474D01*
X102907143Y-98428474D02*
X102878571Y-98399902D01*
X102878571Y-98399902D02*
X102821429Y-98371331D01*
X102821429Y-98371331D02*
X102678571Y-98371331D01*
X102678571Y-98371331D02*
X102621429Y-98399902D01*
X102621429Y-98399902D02*
X102592857Y-98428474D01*
X102592857Y-98428474D02*
X102564286Y-98485617D01*
X102564286Y-98485617D02*
X102564286Y-98542760D01*
X102564286Y-98542760D02*
X102592857Y-98628474D01*
X102592857Y-98628474D02*
X102935714Y-98971331D01*
X102935714Y-98971331D02*
X102564286Y-98971331D01*
X102364285Y-98371331D02*
X101964285Y-98371331D01*
X101964285Y-98371331D02*
X102221428Y-98971331D01*
X95945714Y-96564188D02*
X95974286Y-96592760D01*
X95974286Y-96592760D02*
X96060000Y-96621331D01*
X96060000Y-96621331D02*
X96117143Y-96621331D01*
X96117143Y-96621331D02*
X96202857Y-96592760D01*
X96202857Y-96592760D02*
X96260000Y-96535617D01*
X96260000Y-96535617D02*
X96288571Y-96478474D01*
X96288571Y-96478474D02*
X96317143Y-96364188D01*
X96317143Y-96364188D02*
X96317143Y-96278474D01*
X96317143Y-96278474D02*
X96288571Y-96164188D01*
X96288571Y-96164188D02*
X96260000Y-96107045D01*
X96260000Y-96107045D02*
X96202857Y-96049902D01*
X96202857Y-96049902D02*
X96117143Y-96021331D01*
X96117143Y-96021331D02*
X96060000Y-96021331D01*
X96060000Y-96021331D02*
X95974286Y-96049902D01*
X95974286Y-96049902D02*
X95945714Y-96078474D01*
X95374286Y-96621331D02*
X95717143Y-96621331D01*
X95545714Y-96621331D02*
X95545714Y-96021331D01*
X95545714Y-96021331D02*
X95602857Y-96107045D01*
X95602857Y-96107045D02*
X95660000Y-96164188D01*
X95660000Y-96164188D02*
X95717143Y-96192760D01*
X94831428Y-96021331D02*
X95117142Y-96021331D01*
X95117142Y-96021331D02*
X95145714Y-96307045D01*
X95145714Y-96307045D02*
X95117142Y-96278474D01*
X95117142Y-96278474D02*
X95060000Y-96249902D01*
X95060000Y-96249902D02*
X94917142Y-96249902D01*
X94917142Y-96249902D02*
X94860000Y-96278474D01*
X94860000Y-96278474D02*
X94831428Y-96307045D01*
X94831428Y-96307045D02*
X94802857Y-96364188D01*
X94802857Y-96364188D02*
X94802857Y-96507045D01*
X94802857Y-96507045D02*
X94831428Y-96564188D01*
X94831428Y-96564188D02*
X94860000Y-96592760D01*
X94860000Y-96592760D02*
X94917142Y-96621331D01*
X94917142Y-96621331D02*
X95060000Y-96621331D01*
X95060000Y-96621331D02*
X95117142Y-96592760D01*
X95117142Y-96592760D02*
X95145714Y-96564188D01*
%TO.C,C34*%
X96594420Y-99800000D02*
X96875580Y-99800000D01*
X96594420Y-100820000D02*
X96875580Y-100820000D01*
%TO.C,C23*%
X99875580Y-95000000D02*
X99594420Y-95000000D01*
X99875580Y-96020000D02*
X99594420Y-96020000D01*
%TO.C,C16*%
X99875580Y-90200000D02*
X99594420Y-90200000D01*
X99875580Y-91220000D02*
X99594420Y-91220000D01*
%TO.C,C21*%
X99875580Y-93400000D02*
X99594420Y-93400000D01*
X99875580Y-94420000D02*
X99594420Y-94420000D01*
%TO.C,C13*%
X96594420Y-95000000D02*
X96875580Y-95000000D01*
X96594420Y-96020000D02*
X96875580Y-96020000D01*
%TO.C,C6*%
X96594420Y-90200000D02*
X96875580Y-90200000D01*
X96594420Y-91220000D02*
X96875580Y-91220000D01*
%TO.C,C37*%
X96594420Y-104600000D02*
X96875580Y-104600000D01*
X96594420Y-105620000D02*
X96875580Y-105620000D01*
%TO.C,C36*%
X96594420Y-103000000D02*
X96875580Y-103000000D01*
X96594420Y-104020000D02*
X96875580Y-104020000D01*
%TO.C,C25*%
X99875580Y-96600000D02*
X99594420Y-96600000D01*
X99875580Y-97620000D02*
X99594420Y-97620000D01*
D12*
%TO.C,D3*%
X96010000Y-77870000D02*
G75*
G02*
X95910000Y-77870000I-50000J0D01*
G01*
X95910000Y-77870000D02*
G75*
G02*
X96010000Y-77870000I50000J0D01*
G01*
D11*
%TO.C,C35*%
X96594420Y-101400000D02*
X96875580Y-101400000D01*
X96594420Y-102420000D02*
X96875580Y-102420000D01*
%TO.C,C30*%
X99875580Y-101400000D02*
X99594420Y-101400000D01*
X99875580Y-102420000D02*
X99594420Y-102420000D01*
%TO.C,C31*%
X99875580Y-103000000D02*
X99594420Y-103000000D01*
X99875580Y-104020000D02*
X99594420Y-104020000D01*
%TO.C,C32*%
X99875580Y-104600000D02*
X99594420Y-104600000D01*
X99875580Y-105620000D02*
X99594420Y-105620000D01*
%TO.C,C12*%
X96594420Y-93400000D02*
X96875580Y-93400000D01*
X96594420Y-94420000D02*
X96875580Y-94420000D01*
%TO.C,C9*%
X96594420Y-91800000D02*
X96875580Y-91800000D01*
X96594420Y-92820000D02*
X96875580Y-92820000D01*
%TO.C,C28*%
X99875580Y-99800000D02*
X99594420Y-99800000D01*
X99875580Y-100820000D02*
X99594420Y-100820000D01*
%TO.C,C19*%
X99875580Y-91800000D02*
X99594420Y-91800000D01*
X99875580Y-92820000D02*
X99594420Y-92820000D01*
%TO.C,C33*%
X96594420Y-98200000D02*
X96875580Y-98200000D01*
X96594420Y-99220000D02*
X96875580Y-99220000D01*
%TO.C,C27*%
X99875580Y-98200000D02*
X99594420Y-98200000D01*
X99875580Y-99220000D02*
X99594420Y-99220000D01*
%TO.C,C15*%
X96594420Y-96600000D02*
X96875580Y-96600000D01*
X96594420Y-97620000D02*
X96875580Y-97620000D01*
%TD*%
M02*
