%TF.GenerationSoftware,KiCad,Pcbnew,9.0.1*%
%TF.CreationDate,2025-05-02T11:49:09+03:00*%
%TF.ProjectId,Kampela_H1,4b616d70-656c-4615-9f48-312e6b696361,rev?*%
%TF.SameCoordinates,Original*%
%TF.FileFunction,Soldermask,Top*%
%TF.FilePolarity,Negative*%
%FSLAX46Y46*%
G04 Gerber Fmt 4.6, Leading zero omitted, Abs format (unit mm)*
G04 Created by KiCad (PCBNEW 9.0.1) date 2025-05-02 11:49:09*
%MOMM*%
%LPD*%
G01*
G04 APERTURE LIST*
G04 Aperture macros list*
%AMRoundRect*
0 Rectangle with rounded corners*
0 $1 Rounding radius*
0 $2 $3 $4 $5 $6 $7 $8 $9 X,Y pos of 4 corners*
0 Add a 4 corners polygon primitive as box body*
4,1,4,$2,$3,$4,$5,$6,$7,$8,$9,$2,$3,0*
0 Add four circle primitives for the rounded corners*
1,1,$1+$1,$2,$3*
1,1,$1+$1,$4,$5*
1,1,$1+$1,$6,$7*
1,1,$1+$1,$8,$9*
0 Add four rect primitives between the rounded corners*
20,1,$1+$1,$2,$3,$4,$5,0*
20,1,$1+$1,$4,$5,$6,$7,0*
20,1,$1+$1,$6,$7,$8,$9,0*
20,1,$1+$1,$8,$9,$2,$3,0*%
%AMRotRect*
0 Rectangle, with rotation*
0 The origin of the aperture is its center*
0 $1 length*
0 $2 width*
0 $3 Rotation angle, in degrees counterclockwise*
0 Add horizontal line*
21,1,$1,$2,0,0,$3*%
%AMOutline5P*
0 Free polygon, 5 corners , with rotation*
0 The origin of the aperture is its center*
0 number of corners: always 5*
0 $1 to $10 corner X, Y*
0 $11 Rotation angle, in degrees counterclockwise*
0 create outline with 5 corners*
4,1,5,$1,$2,$3,$4,$5,$6,$7,$8,$9,$10,$1,$2,$11*%
%AMOutline6P*
0 Free polygon, 6 corners , with rotation*
0 The origin of the aperture is its center*
0 number of corners: always 6*
0 $1 to $12 corner X, Y*
0 $13 Rotation angle, in degrees counterclockwise*
0 create outline with 6 corners*
4,1,6,$1,$2,$3,$4,$5,$6,$7,$8,$9,$10,$11,$12,$1,$2,$13*%
%AMOutline7P*
0 Free polygon, 7 corners , with rotation*
0 The origin of the aperture is its center*
0 number of corners: always 7*
0 $1 to $14 corner X, Y*
0 $15 Rotation angle, in degrees counterclockwise*
0 create outline with 7 corners*
4,1,7,$1,$2,$3,$4,$5,$6,$7,$8,$9,$10,$11,$12,$13,$14,$1,$2,$15*%
%AMOutline8P*
0 Free polygon, 8 corners , with rotation*
0 The origin of the aperture is its center*
0 number of corners: always 8*
0 $1 to $16 corner X, Y*
0 $17 Rotation angle, in degrees counterclockwise*
0 create outline with 8 corners*
4,1,8,$1,$2,$3,$4,$5,$6,$7,$8,$9,$10,$11,$12,$13,$14,$15,$16,$1,$2,$17*%
%AMFreePoly0*
4,1,6,0.130000,0.115000,0.130000,-0.115000,-0.130000,-0.115000,-0.130000,0.275000,-0.020000,0.275000,0.130000,0.115000,0.130000,0.115000,$1*%
%AMFreePoly1*
4,1,6,0.130000,-0.115000,-0.130000,-0.115000,-0.130000,0.115000,0.020000,0.275000,0.130000,0.275000,0.130000,-0.115000,0.130000,-0.115000,$1*%
G04 Aperture macros list end*
%ADD10RoundRect,0.100000X0.130000X0.100000X-0.130000X0.100000X-0.130000X-0.100000X0.130000X-0.100000X0*%
%ADD11R,1.000000X1.000000*%
%ADD12O,1.000000X1.000000*%
%ADD13RoundRect,0.140000X0.140000X0.170000X-0.140000X0.170000X-0.140000X-0.170000X0.140000X-0.170000X0*%
%ADD14RoundRect,0.225000X0.250000X-0.225000X0.250000X0.225000X-0.250000X0.225000X-0.250000X-0.225000X0*%
%ADD15RoundRect,0.140000X-0.170000X0.140000X-0.170000X-0.140000X0.170000X-0.140000X0.170000X0.140000X0*%
%ADD16C,1.000000*%
%ADD17C,2.100000*%
%ADD18R,0.300000X0.800000*%
%ADD19R,0.400000X0.800000*%
%ADD20RoundRect,0.100000X-0.130000X-0.100000X0.130000X-0.100000X0.130000X0.100000X-0.130000X0.100000X0*%
%ADD21R,2.400000X3.500000*%
%ADD22RoundRect,0.100000X0.100000X-0.130000X0.100000X0.130000X-0.100000X0.130000X-0.100000X-0.130000X0*%
%ADD23R,0.200000X0.740000*%
%ADD24R,0.740000X0.200000*%
%ADD25Outline5P,-0.481250X0.096250X-0.096250X0.481250X0.481250X0.481250X0.481250X-0.481250X-0.481250X-0.481250X270.000000*%
%ADD26R,0.962500X0.962500*%
%ADD27RoundRect,0.218750X-0.256250X0.218750X-0.256250X-0.218750X0.256250X-0.218750X0.256250X0.218750X0*%
%ADD28R,0.200000X0.600000*%
%ADD29R,0.250000X0.150000*%
%ADD30R,0.600000X0.200000*%
%ADD31RoundRect,0.087500X0.087500X-0.237500X0.087500X0.237500X-0.087500X0.237500X-0.087500X-0.237500X0*%
%ADD32R,1.600000X0.200000*%
%ADD33RoundRect,0.100000X-0.100000X0.130000X-0.100000X-0.130000X0.100000X-0.130000X0.100000X0.130000X0*%
%ADD34RoundRect,0.225000X-0.250000X0.225000X-0.250000X-0.225000X0.250000X-0.225000X0.250000X0.225000X0*%
%ADD35RoundRect,0.200000X0.200000X0.275000X-0.200000X0.275000X-0.200000X-0.275000X0.200000X-0.275000X0*%
%ADD36RoundRect,0.200000X-0.200000X-0.275000X0.200000X-0.275000X0.200000X0.275000X-0.200000X0.275000X0*%
%ADD37R,0.800000X0.900000*%
%ADD38RoundRect,0.218750X0.218750X0.256250X-0.218750X0.256250X-0.218750X-0.256250X0.218750X-0.256250X0*%
%ADD39RoundRect,0.125000X-0.125000X-0.125000X0.125000X-0.125000X0.125000X0.125000X-0.125000X0.125000X0*%
%ADD40C,1.500000*%
%ADD41RoundRect,0.125000X0.125000X0.125000X-0.125000X0.125000X-0.125000X-0.125000X0.125000X-0.125000X0*%
%ADD42RoundRect,0.140000X-0.140000X-0.170000X0.140000X-0.170000X0.140000X0.170000X-0.140000X0.170000X0*%
%ADD43RoundRect,0.100000X-0.225000X-0.100000X0.225000X-0.100000X0.225000X0.100000X-0.225000X0.100000X0*%
%ADD44C,0.200000*%
%ADD45RoundRect,0.225000X0.225000X0.250000X-0.225000X0.250000X-0.225000X-0.250000X0.225000X-0.250000X0*%
%ADD46Outline5P,-0.481250X0.096250X-0.096250X0.481250X0.481250X0.481250X0.481250X-0.481250X-0.481250X-0.481250X180.000000*%
%ADD47RoundRect,0.100000X0.225000X0.100000X-0.225000X0.100000X-0.225000X-0.100000X0.225000X-0.100000X0*%
%ADD48R,0.800000X0.300000*%
%ADD49R,1.850000X1.800000*%
%ADD50RoundRect,0.062500X-0.187500X-0.062500X0.187500X-0.062500X0.187500X0.062500X-0.187500X0.062500X0*%
%ADD51R,0.900000X1.600000*%
%ADD52RoundRect,0.150000X-0.587500X-0.150000X0.587500X-0.150000X0.587500X0.150000X-0.587500X0.150000X0*%
%ADD53R,0.510000X0.400000*%
%ADD54RoundRect,0.125000X0.125000X-0.125000X0.125000X0.125000X-0.125000X0.125000X-0.125000X-0.125000X0*%
%ADD55RoundRect,0.085000X0.085000X-0.265000X0.085000X0.265000X-0.085000X0.265000X-0.085000X-0.265000X0*%
%ADD56FreePoly0,270.000000*%
%ADD57FreePoly1,270.000000*%
%ADD58FreePoly0,90.000000*%
%ADD59FreePoly1,90.000000*%
%ADD60RotRect,0.520000X0.520000X135.000000*%
G04 APERTURE END LIST*
D10*
%TO.C,C56*%
X124180001Y-95160000D03*
X123540001Y-95160000D03*
%TD*%
D11*
%TO.C,J7*%
X172160000Y-101600000D03*
D12*
X172160000Y-100330000D03*
X172160000Y-99060000D03*
X172160000Y-97790000D03*
X172160000Y-96520000D03*
X172160000Y-95250000D03*
X172160000Y-93980000D03*
X172160000Y-92710000D03*
%TD*%
D13*
%TO.C,C14*%
X102660000Y-87010000D03*
X101700000Y-87010000D03*
%TD*%
D10*
%TO.C,R19*%
X137075000Y-105100000D03*
X136435000Y-105100000D03*
%TD*%
D14*
%TO.C,C11*%
X123560000Y-86400000D03*
X123560000Y-84850000D03*
%TD*%
D13*
%TO.C,C53*%
X128440000Y-80110000D03*
X127480000Y-80110000D03*
%TD*%
D15*
%TO.C,C41*%
X130760000Y-99030000D03*
X130760000Y-99990000D03*
%TD*%
D16*
%TO.C,TP26*%
X168350000Y-100330000D03*
%TD*%
%TO.C,TP2*%
X95960000Y-82710000D03*
%TD*%
D10*
%TO.C,C55*%
X124180001Y-95910000D03*
X123540001Y-95910000D03*
%TD*%
D17*
%TO.C,H1*%
X97160000Y-74510000D03*
%TD*%
D16*
%TO.C,TP13*%
X168858000Y-107910000D03*
%TD*%
D18*
%TO.C,J5*%
X136460000Y-107710000D03*
X135960000Y-107710000D03*
X135460000Y-107710000D03*
X134960000Y-107710000D03*
X134460000Y-107710000D03*
X133960000Y-107710000D03*
X133460000Y-107710000D03*
X132960000Y-107710000D03*
X132460000Y-107710000D03*
X131960000Y-107710000D03*
D19*
X137460000Y-110210000D03*
X130960000Y-110210000D03*
%TD*%
D16*
%TO.C,TP27*%
X165810000Y-99060000D03*
%TD*%
%TO.C,TP3*%
X102660000Y-88760000D03*
%TD*%
D20*
%TO.C,R3*%
X114640000Y-77610000D03*
X115280000Y-77610000D03*
%TD*%
D16*
%TO.C,TP14*%
X166953000Y-105370000D03*
%TD*%
D21*
%TO.C,J1*%
X98960000Y-82510000D03*
%TD*%
D20*
%TO.C,R23*%
X134055000Y-104200000D03*
X134695000Y-104200000D03*
%TD*%
%TO.C,R1*%
X107840000Y-76210000D03*
X108480000Y-76210000D03*
%TD*%
D22*
%TO.C,R17*%
X163360000Y-108630000D03*
X163360000Y-107990000D03*
%TD*%
D20*
%TO.C,R4*%
X112640000Y-78410000D03*
X113280000Y-78410000D03*
%TD*%
D16*
%TO.C,TP17*%
X127360000Y-110510000D03*
%TD*%
D23*
%TO.C,U9*%
X121160000Y-92810000D03*
X120760000Y-92810001D03*
X120360000Y-92810000D03*
X119960000Y-92810000D03*
X119559999Y-92810000D03*
X119160001Y-92810000D03*
X118760000Y-92810000D03*
X118360000Y-92810000D03*
X117960000Y-92810001D03*
X117560000Y-92810000D03*
D24*
X116860000Y-93510000D03*
X116860001Y-93910000D03*
X116860000Y-94310000D03*
X116860000Y-94710000D03*
X116860000Y-95110001D03*
X116860000Y-95509999D03*
X116860000Y-95910000D03*
X116860000Y-96310000D03*
X116860001Y-96710000D03*
X116860000Y-97110000D03*
D23*
X117560000Y-97810000D03*
X117960000Y-97809999D03*
X118360000Y-97810000D03*
X118760000Y-97810000D03*
X119160001Y-97810000D03*
X119559999Y-97810000D03*
X119960000Y-97810000D03*
X120360000Y-97810000D03*
X120760000Y-97809999D03*
X121160000Y-97810000D03*
D24*
X121860000Y-97110000D03*
X121859999Y-96710000D03*
X121860000Y-96310000D03*
X121860000Y-95910000D03*
X121860000Y-95509999D03*
X121860000Y-95110001D03*
X121860000Y-94710000D03*
X121860000Y-94310000D03*
X121859999Y-93910000D03*
X121860000Y-93510000D03*
D25*
X120803750Y-93866250D03*
D26*
X119841251Y-93866250D03*
X118878749Y-93866250D03*
X117916250Y-93866250D03*
X120803750Y-94828749D03*
X117916250Y-94828749D03*
X119841250Y-94828750D03*
X118878750Y-94828750D03*
X119841250Y-95791250D03*
X118878750Y-95791250D03*
X120803750Y-95791251D03*
X117916250Y-95791251D03*
X120803750Y-96753750D03*
X119841251Y-96753750D03*
X118878749Y-96753750D03*
X117916250Y-96753750D03*
%TD*%
D22*
%TO.C,R18*%
X133760000Y-89510000D03*
X133760000Y-88870000D03*
%TD*%
D16*
%TO.C,TP4*%
X102760000Y-80510000D03*
%TD*%
D22*
%TO.C,R27*%
X126160000Y-79680000D03*
X126160000Y-79040000D03*
%TD*%
D27*
%TO.C,L2*%
X116260000Y-83540000D03*
X116260000Y-85115000D03*
%TD*%
D20*
%TO.C,C47*%
X137340000Y-102010000D03*
X137980000Y-102010000D03*
%TD*%
D28*
%TO.C,U8*%
X136460000Y-101860000D03*
D29*
X136635000Y-102085000D03*
D28*
X136060000Y-101860000D03*
X135660000Y-101860000D03*
X135260000Y-101860000D03*
X134860000Y-101860000D03*
D30*
X134860000Y-102510000D03*
D28*
X134860000Y-103160000D03*
X135260000Y-103160000D03*
X135660000Y-103160000D03*
X136060000Y-103160000D03*
X136460000Y-103160000D03*
D30*
X136460000Y-102510000D03*
%TD*%
D16*
%TO.C,TP9*%
X108660000Y-83760000D03*
%TD*%
%TO.C,TP24*%
X127960000Y-81720000D03*
%TD*%
D31*
%TO.C,U5*%
X136910000Y-95860000D03*
X137410001Y-95860000D03*
X137910001Y-95860000D03*
X138410002Y-95860000D03*
X138410002Y-93060000D03*
X137910001Y-93060000D03*
X137410001Y-93060000D03*
X136910000Y-93060000D03*
D32*
X137660001Y-94460000D03*
%TD*%
D33*
%TO.C,R12*%
X121010000Y-101770000D03*
X121010000Y-102410000D03*
%TD*%
D34*
%TO.C,C22*%
X120010000Y-109435000D03*
X120010000Y-110985000D03*
%TD*%
D16*
%TO.C,TP28*%
X168350000Y-96520000D03*
%TD*%
D33*
%TO.C,C42*%
X133710000Y-91040000D03*
X133710000Y-91680000D03*
%TD*%
D35*
%TO.C,R16*%
X164985000Y-106710000D03*
X163335000Y-106710000D03*
%TD*%
D20*
%TO.C,C59*%
X113195001Y-93910000D03*
X113835001Y-93910000D03*
%TD*%
D16*
%TO.C,TP22*%
X124360000Y-77700000D03*
%TD*%
%TO.C,TP10*%
X114260000Y-86715000D03*
%TD*%
%TO.C,TP21*%
X139270000Y-108820000D03*
%TD*%
D36*
%TO.C,R9*%
X101110000Y-82510000D03*
X102760000Y-82510000D03*
%TD*%
D10*
%TO.C,R25*%
X126400000Y-83360000D03*
X125760000Y-83360000D03*
%TD*%
D16*
%TO.C,TP1*%
X117160000Y-81710000D03*
%TD*%
D33*
%TO.C,C17*%
X123210000Y-103490000D03*
X123210000Y-104130000D03*
%TD*%
D10*
%TO.C,R7*%
X124625000Y-101710000D03*
X123985000Y-101710000D03*
%TD*%
D16*
%TO.C,TP25*%
X127760000Y-76700000D03*
%TD*%
D21*
%TO.C,J2*%
X98960000Y-87560000D03*
%TD*%
D37*
%TO.C,Y1*%
X135050000Y-90010000D03*
X135050000Y-91410000D03*
X136150000Y-91410000D03*
X136150000Y-90010000D03*
%TD*%
D33*
%TO.C,R13*%
X108660000Y-79760000D03*
X108660000Y-80400000D03*
%TD*%
D38*
%TO.C,FB1*%
X105947500Y-86260000D03*
X104372500Y-86260000D03*
%TD*%
D20*
%TO.C,R5*%
X114640000Y-78410000D03*
X115280000Y-78410000D03*
%TD*%
D16*
%TO.C,TP18*%
X132560000Y-102310000D03*
%TD*%
D20*
%TO.C,C4*%
X127410000Y-91700000D03*
X128050000Y-91700000D03*
%TD*%
D22*
%TO.C,R2*%
X111760000Y-78330000D03*
X111760000Y-77690000D03*
%TD*%
D10*
%TO.C,R11*%
X120185000Y-102410000D03*
X119545000Y-102410000D03*
%TD*%
D39*
%TO.C,D5*%
X159860000Y-106710000D03*
X162060000Y-106710000D03*
%TD*%
D10*
%TO.C,C52*%
X127680000Y-79110000D03*
X127040000Y-79110000D03*
%TD*%
D39*
%TO.C,D4*%
X103710000Y-76260000D03*
X105910000Y-76260000D03*
%TD*%
D40*
%TO.C,FID1*%
X96160000Y-112710000D03*
%TD*%
D41*
%TO.C,D1*%
X111660000Y-76210000D03*
X109460000Y-76210000D03*
%TD*%
D16*
%TO.C,TP11*%
X166953000Y-111720000D03*
%TD*%
D42*
%TO.C,C20*%
X105450000Y-81510000D03*
X106410000Y-81510000D03*
%TD*%
D20*
%TO.C,R14*%
X106660000Y-77760000D03*
X107300000Y-77760000D03*
%TD*%
D40*
%TO.C,FID2*%
X165160000Y-74710000D03*
%TD*%
D20*
%TO.C,R26*%
X124240000Y-83360000D03*
X124880000Y-83360000D03*
%TD*%
D21*
%TO.C,J3*%
X154860000Y-80260000D03*
%TD*%
D43*
%TO.C,U1*%
X113410000Y-79560000D03*
X113410000Y-80210000D03*
X113410000Y-80860000D03*
X115310000Y-80860000D03*
X115310000Y-79560000D03*
%TD*%
D20*
%TO.C,R8*%
X127410000Y-90950000D03*
X128050000Y-90950000D03*
%TD*%
D16*
%TO.C,TP29*%
X165810000Y-93980000D03*
%TD*%
D10*
%TO.C,R21*%
X129080000Y-109110000D03*
X128440000Y-109110000D03*
%TD*%
D42*
%TO.C,C54*%
X123630001Y-96910000D03*
X124590001Y-96910000D03*
%TD*%
D16*
%TO.C,TP30*%
X168350000Y-92710000D03*
%TD*%
D33*
%TO.C,R20*%
X129530000Y-104370000D03*
X129530000Y-105010000D03*
%TD*%
D44*
%TO.C,U6*%
X138770000Y-98960000D03*
X137370000Y-98960000D03*
X138420000Y-98760000D03*
X137720000Y-98760000D03*
X138070000Y-98559999D03*
X138419999Y-98360000D03*
X137720001Y-98360000D03*
X138070000Y-98160001D03*
X138420000Y-97960000D03*
X137720000Y-97960000D03*
X138770000Y-97760000D03*
X137370000Y-97760000D03*
%TD*%
D45*
%TO.C,C18*%
X105935000Y-87760000D03*
X104385000Y-87760000D03*
%TD*%
D20*
%TO.C,R15*%
X105245000Y-77760000D03*
X105885000Y-77760000D03*
%TD*%
D24*
%TO.C,U7*%
X134860000Y-97110000D03*
X134859999Y-96710000D03*
X134860000Y-96310000D03*
X134860000Y-95910000D03*
X134860000Y-95509999D03*
X134860000Y-95110001D03*
X134860000Y-94710000D03*
X134860000Y-94310000D03*
X134859999Y-93910000D03*
X134860000Y-93510000D03*
D23*
X134160000Y-92810000D03*
X133760000Y-92810001D03*
X133360000Y-92810000D03*
X132960000Y-92810000D03*
X132559999Y-92810000D03*
X132160001Y-92810000D03*
X131760000Y-92810000D03*
X131360000Y-92810000D03*
X130960000Y-92810001D03*
X130560000Y-92810000D03*
D24*
X129860000Y-93510000D03*
X129860001Y-93910000D03*
X129860000Y-94310000D03*
X129860000Y-94710000D03*
X129860000Y-95110001D03*
X129860000Y-95509999D03*
X129860000Y-95910000D03*
X129860000Y-96310000D03*
X129860001Y-96710000D03*
X129860000Y-97110000D03*
D23*
X130560000Y-97810000D03*
X130960000Y-97809999D03*
X131360000Y-97810000D03*
X131760000Y-97810000D03*
X132160001Y-97810000D03*
X132559999Y-97810000D03*
X132960000Y-97810000D03*
X133360000Y-97810000D03*
X133760000Y-97809999D03*
X134160000Y-97810000D03*
D46*
X133803750Y-96753750D03*
D26*
X133803750Y-95791251D03*
X133803750Y-94828749D03*
X133803750Y-93866250D03*
X132841251Y-96753750D03*
X132841251Y-93866250D03*
X132841250Y-95791250D03*
X132841250Y-94828750D03*
X131878750Y-95791250D03*
X131878750Y-94828750D03*
X131878749Y-96753750D03*
X131878749Y-93866250D03*
X130916250Y-96753750D03*
X130916250Y-95791251D03*
X130916250Y-94828749D03*
X130916250Y-93866250D03*
%TD*%
D11*
%TO.C,J4*%
X172160000Y-112990000D03*
D12*
X172160000Y-111720000D03*
X172160000Y-110450000D03*
X172160000Y-109180000D03*
X172160000Y-107910000D03*
X172160000Y-106640000D03*
X172160000Y-105370000D03*
X172160000Y-104100000D03*
%TD*%
D10*
%TO.C,C39*%
X137980000Y-91960000D03*
X137340000Y-91960000D03*
%TD*%
D33*
%TO.C,C3*%
X116360000Y-79570000D03*
X116360000Y-80210000D03*
%TD*%
%TO.C,C40*%
X139710000Y-97690000D03*
X139710000Y-98330000D03*
%TD*%
D22*
%TO.C,C44*%
X131610000Y-99655000D03*
X131610000Y-99015000D03*
%TD*%
D47*
%TO.C,Q2*%
X107560000Y-80260000D03*
X107560000Y-79610000D03*
X107560000Y-78960000D03*
X105660000Y-78960000D03*
X105660000Y-79610000D03*
X105660000Y-80260000D03*
%TD*%
D16*
%TO.C,TP19*%
X130960000Y-104510000D03*
%TD*%
D33*
%TO.C,R6*%
X112360000Y-80235000D03*
X112360000Y-80875000D03*
%TD*%
D14*
%TO.C,C26*%
X110660000Y-83710000D03*
X110660000Y-82160000D03*
%TD*%
D20*
%TO.C,C46*%
X133120000Y-90310000D03*
X133760000Y-90310000D03*
%TD*%
D16*
%TO.C,TP5*%
X107660000Y-86510000D03*
%TD*%
D34*
%TO.C,C49*%
X126760000Y-104135000D03*
X126760000Y-105685000D03*
%TD*%
D33*
%TO.C,C29*%
X111860000Y-83270000D03*
X111860000Y-83910000D03*
%TD*%
D10*
%TO.C,R22*%
X133180000Y-104210000D03*
X132540000Y-104210000D03*
%TD*%
D22*
%TO.C,C43*%
X132400000Y-99630000D03*
X132400000Y-98990000D03*
%TD*%
D45*
%TO.C,C8*%
X119810000Y-105610000D03*
X118260000Y-105610000D03*
%TD*%
D20*
%TO.C,R28*%
X127040000Y-78310000D03*
X127680000Y-78310000D03*
%TD*%
D16*
%TO.C,TP7*%
X124070000Y-98460000D03*
%TD*%
D20*
%TO.C,C10*%
X119490000Y-104410000D03*
X120130000Y-104410000D03*
%TD*%
D17*
%TO.C,H3*%
X97160000Y-116510000D03*
%TD*%
D10*
%TO.C,C2*%
X113280000Y-77610000D03*
X112640000Y-77610000D03*
%TD*%
D16*
%TO.C,TP8*%
X118210000Y-107410000D03*
%TD*%
D48*
%TO.C,J6*%
X130480000Y-78700000D03*
X130480000Y-79200000D03*
X130480000Y-79700000D03*
X130480000Y-80200000D03*
X130480000Y-80700000D03*
X130480000Y-81200000D03*
D49*
X132430000Y-82900000D03*
X132430000Y-77000000D03*
%TD*%
D34*
%TO.C,C50*%
X128360000Y-104135000D03*
X128360000Y-105685000D03*
%TD*%
D16*
%TO.C,TP6*%
X117860000Y-103510000D03*
%TD*%
D22*
%TO.C,R24*%
X125360000Y-79680000D03*
X125360000Y-79040000D03*
%TD*%
D50*
%TO.C,U4*%
X112860000Y-83415000D03*
X112860000Y-83915000D03*
X112860000Y-84415000D03*
X112860000Y-84915000D03*
X114760000Y-84915000D03*
X114760000Y-84415000D03*
X114760000Y-83915000D03*
X114760000Y-83415000D03*
D51*
X113810000Y-84165000D03*
%TD*%
D16*
%TO.C,TP15*%
X168858000Y-104100000D03*
%TD*%
D15*
%TO.C,C51*%
X128960000Y-110030000D03*
X128960000Y-110990000D03*
%TD*%
D20*
%TO.C,C7*%
X124920000Y-86425000D03*
X125560000Y-86425000D03*
%TD*%
D14*
%TO.C,C24*%
X121610000Y-110960000D03*
X121610000Y-109410000D03*
%TD*%
D17*
%TO.C,H2*%
X171160000Y-116510000D03*
%TD*%
D52*
%TO.C,Q1*%
X104722500Y-82810000D03*
X104722500Y-84710000D03*
X106597500Y-83760000D03*
%TD*%
D15*
%TO.C,C58*%
X121110001Y-99180000D03*
X121110001Y-100140000D03*
%TD*%
D16*
%TO.C,TP20*%
X130300000Y-106400000D03*
%TD*%
D10*
%TO.C,C57*%
X124180001Y-94410000D03*
X123540001Y-94410000D03*
%TD*%
D22*
%TO.C,C1*%
X110960000Y-78330000D03*
X110960000Y-77690000D03*
%TD*%
D53*
%TO.C,D6*%
X128360000Y-108110000D03*
X128360000Y-107110000D03*
X127070000Y-107610000D03*
%TD*%
D34*
%TO.C,C38*%
X116260000Y-86540000D03*
X116260000Y-88090000D03*
%TD*%
D54*
%TO.C,D2*%
X102760000Y-86010000D03*
X102760000Y-83810000D03*
%TD*%
D27*
%TO.C,L1*%
X121610000Y-106422500D03*
X121610000Y-107997500D03*
%TD*%
D55*
%TO.C,Q3*%
X125260000Y-82310000D03*
X125760000Y-82310000D03*
X126260000Y-82310000D03*
X126260000Y-80810000D03*
X125760000Y-80810000D03*
X125260000Y-80810000D03*
%TD*%
D56*
%TO.C,U2*%
X124790000Y-84900000D03*
D57*
X124790000Y-85550000D03*
D58*
X125760000Y-85550000D03*
D59*
X125760000Y-84900000D03*
D60*
X125275000Y-85225000D03*
%TD*%
D16*
%TO.C,TP23*%
X122760000Y-83100000D03*
%TD*%
D22*
%TO.C,R10*%
X104410000Y-84080000D03*
X104410000Y-83440000D03*
%TD*%
D55*
%TO.C,U3*%
X121110000Y-105010000D03*
X121610000Y-105010000D03*
X122110000Y-105010000D03*
X122110000Y-103510000D03*
X121610000Y-103510000D03*
X121110000Y-103510000D03*
%TD*%
D34*
%TO.C,C5*%
X101000000Y-84215000D03*
X101000000Y-85765000D03*
%TD*%
D20*
%TO.C,C48*%
X137340000Y-103260000D03*
X137980000Y-103260000D03*
%TD*%
D13*
%TO.C,C45*%
X128320000Y-98230000D03*
X127360000Y-98230000D03*
%TD*%
D16*
%TO.C,TP16*%
X124960000Y-106710000D03*
%TD*%
%TO.C,TP12*%
X168858000Y-110450000D03*
%TD*%
D20*
%TO.C,R29*%
X114695001Y-93910000D03*
X115335001Y-93910000D03*
%TD*%
M02*
