M48
; DRILL file {KiCad 7.99.0-1761-g0fd2efa283} date Tue Aug 22 00:03:22 2023
; FORMAT={-:-/ absolute / metric / decimal}
; #@! TF.CreationDate,2023-08-22T00:03:22+03:00
; #@! TF.GenerationSoftware,Kicad,Pcbnew,7.99.0-1761-g0fd2efa283
; #@! TF.FileFunction,Plated,1,2,PTH
FMAT,2
METRIC
; #@! TA.AperFunction,Plated,PTH,ViaDrill
T1C0.150
; #@! TA.AperFunction,Plated,PTH,ComponentDrill
T2C0.250
; #@! TA.AperFunction,Plated,PTH,ComponentDrill
T3C0.650
%
G90
G05
T1
X87.56Y-110.31
X87.56Y-111.11
X88.13Y-101.08
X88.23Y-109.26
X88.86Y-110.31
X88.86Y-111.21
X89.23Y-106.73
X89.24Y-105.73
X89.86Y-99.76
X90.01Y-102.16
X90.01Y-111.26
X90.04Y-103.82
X90.223Y-110.585
X91.21Y-107.41
X91.21Y-108.41
X91.41Y-111.685
X91.46Y-109.46
X92.285Y-110.71
X92.36Y-115.71
X92.51Y-100.56
X92.51Y-102.46
X92.91Y-109.96
X92.98Y-98.665
X93.21Y-104.68
X93.21Y-106.96
X93.22Y-97.655
X93.26Y-109.135
X93.26Y-116.91
X93.27Y-122.491
X93.46Y-128.96
X93.498Y-106.01
X93.75Y-113.12
X93.81Y-141.051
X93.96Y-104.71
X94.14Y-126.661
X94.21Y-98.695
X94.46Y-100.21
X95.36Y-100.635
X95.61Y-102.41
X95.71Y-103.21
X95.83Y-120.051
X96.36Y-100.935
X96.99Y-104.775
X97.11Y-98.785
X97.11Y-99.81
X97.59Y-125.031
X97.96Y-99.21
X98.16Y-113.91
X98.28Y-126.881
X98.31Y-141.371
X98.66Y-109.61
X98.71Y-102.71
X98.86Y-111.31
X99.65Y-125.131
X99.66Y-116.91
X99.84Y-138.191
X99.94Y-135.511
X100.58Y-107.645
X101.41Y-139.185
X101.463Y-97.948
X101.65Y-119.39
X101.83Y-105.785
X101.84Y-116.13
X101.85Y-127.19
X102.07Y-124.58
X102.19Y-113.371
X102.65Y-109.641
X102.76Y-130.485
X102.76Y-136.035
X102.77Y-132.465
X102.77Y-137.425
X102.88Y-128.435
X103.22Y-105.58
X103.32Y-120.11
X103.33Y-117.17
X103.33Y-118.69
X103.35Y-121.57
X103.63Y-107.67
X104.03Y-140.971
X104.08Y-123.13
X104.15Y-125.42
X104.33Y-126.735
X104.33Y-127.735
X104.45Y-135.115
X104.46Y-137.445
X104.55Y-124.02
X104.7Y-118.73
X104.76Y-113.21
X104.78Y-120.32
X104.86Y-130.46
X105.0Y-121.255
X105.01Y-122.55
X105.08Y-105.83
X105.17Y-133.53
X105.31Y-116.33
X105.39Y-138.44
X105.46Y-118.3
X105.48Y-141.995
X105.5Y-136.31
X105.73Y-110.675
X106.21Y-101.46
X106.26Y-115.35
X106.49Y-139.55
X106.52Y-134.62
X106.637Y-122.103
X106.66Y-118.82
X106.82Y-137.65
X107.05Y-120.235
X107.12Y-126.2
X107.14Y-108.315
X107.14Y-114.39
X107.29Y-105.155
X107.29Y-122.64
X107.63Y-140.56
X107.71Y-99.96
X107.814Y-130.422
X107.87Y-136.13
X108.119Y-122.197
X108.16Y-138.94
X108.199Y-123.466
X108.21Y-108.585
X108.27Y-134.84
X108.35Y-110.08
X108.62Y-127.23
X108.69Y-136.74
X108.96Y-101.46
X109.035Y-124.502
X109.06Y-140.01
X109.46Y-107.46
X109.65Y-97.385
X109.67Y-131.97
X110.07Y-99.085
X110.15Y-113.341
X110.25Y-98.085
X110.636Y-127.266
X110.636Y-128.229
X110.636Y-129.191
X110.64Y-120.36
X110.682Y-130.108
X110.85Y-113.755
X110.9Y-139.165
X111.03Y-139.935
X111.04Y-112.12
X111.05Y-108.385
X111.09Y-120.86
X111.16Y-138.445
X111.2Y-104.87
X111.21Y-105.96
X111.36Y-106.81
X111.52Y-116.11
X111.53Y-124.7
X111.599Y-127.266
X111.599Y-128.229
X111.599Y-129.191
X111.599Y-130.154
X111.77Y-140.115
X111.84Y-112.76
X112.15Y-122.755
X112.22Y-105.13
X112.27Y-115.351
X112.27Y-116.52
X112.28Y-119.75
X112.385Y-138.01
X112.41Y-107.25
X112.48Y-107.985
X112.561Y-127.266
X112.561Y-128.229
X112.561Y-129.191
X112.561Y-130.154
X112.7Y-133.64
X112.77Y-113.92
X113.27Y-118.06
X113.524Y-127.266
X113.524Y-128.229
X113.524Y-129.191
X113.524Y-130.154
X113.75Y-123.402
X113.76Y-138.525
X113.81Y-116.981
X113.81Y-136.01
X113.86Y-102.39
X114.205Y-124.925
X114.33Y-118.27
X114.535Y-120.035
X114.67Y-139.291
X114.75Y-112.175
X114.77Y-113.32
X114.78Y-110.46
X114.788Y-104.228
X114.94Y-131.37
X115.095Y-105.955
X115.1Y-137.25
X115.18Y-100.105
X115.3Y-117.43
X115.71Y-111.755
X115.77Y-131.5
X115.86Y-137.82
X115.96Y-124.51
X116.327Y-135.343
X116.37Y-99.325
X116.37Y-119.99
X116.4Y-100.11
X116.53Y-128.225
X116.53Y-130.19
X116.54Y-131.21
X116.62Y-98.045
X116.8Y-112.325
X116.8Y-117.09
X116.86Y-139.131
X117.25Y-132.28
X117.41Y-136.52
X117.61Y-106.875
X117.62Y-108.325
X117.65Y-109.475
X117.66Y-123.21
X117.92Y-117.84
X117.96Y-102.035
X117.96Y-105.78
X118.175Y-97.31
X118.22Y-135.82
X118.32Y-137.021
X118.4Y-134.19
X118.41Y-132.36
X118.72Y-116.57
X118.75Y-119.5
X118.76Y-103.54
X118.94Y-120.38
X119.03Y-111.99
X119.09Y-127.38
X119.12Y-105.83
X119.28Y-110.29
X119.29Y-134.08
X119.3Y-131.24
X119.31Y-97.705
X119.61Y-132.23
X119.72Y-123.16
X119.78Y-125.68
X119.78Y-137.22
X119.96Y-108.27
X120.47Y-123.95
X120.52Y-107.41
X120.63Y-132.15
X120.76Y-112.885
X120.76Y-114.6
X120.825Y-99.21
X120.96Y-126.85
X120.98Y-135.71
X121.04Y-100.245
X121.33Y-130.39
X121.335Y-116.485
X121.335Y-120.66
X121.34Y-128.05
X121.4Y-125.75
X121.41Y-123.3
X121.54Y-137.44
X121.55Y-129.1
X121.66Y-108.23
X121.66Y-121.63
X122.33Y-98.64
X122.43Y-132.48
X122.76Y-123.66
X122.84Y-130.48
X122.89Y-121.57
X122.96Y-128.31
X123.18Y-137.67
X123.275Y-97.56
X123.44Y-108.32
X123.64Y-136.67
X123.7Y-113.735
X123.73Y-132.19
X123.76Y-120.71
X123.97Y-116.53
X124.1Y-98.775
X124.11Y-129.07
X124.31Y-124.61
X124.44Y-110.01
X124.46Y-108.73
X124.49Y-137.35
X124.61Y-123.285
X124.94Y-136.47
X124.96Y-97.46
X125.01Y-129.92
X125.06Y-126.63
X125.35Y-125.09
X125.37Y-130.82
X125.497Y-109.252
X125.91Y-121.81
X125.95Y-132.88
X125.99Y-129.93
X126.2Y-119.92
X126.27Y-98.075
X126.56Y-110.01
X126.66Y-111.42
X126.78Y-118.43
X126.83Y-135.15
X127.14Y-137.57
X127.21Y-135.83
X127.29Y-132.998
X127.29Y-126.33
X127.41Y-101.875
X127.96Y-98.46
X128.36Y-108.62
X128.45Y-117.2
X128.56Y-129.24
X128.57Y-112.885
X128.73Y-124.79
X128.8Y-132.55
X128.81Y-114.67
X128.89Y-110.84
X128.93Y-119.55
X129.14Y-120.86
X129.39Y-133.77
X129.45Y-129.33
X129.54Y-113.741
X129.73Y-104.125
X130.0Y-130.69
X130.15Y-118.03
X130.22Y-135.6
X130.52Y-127.96
X130.53Y-136.42
X130.56Y-116.68
X130.58Y-119.491
X130.59Y-100.415
X130.65Y-123.91
X130.9Y-125.3
X130.95Y-126.88
X130.96Y-97.71
X130.96Y-131.675
X130.981Y-129.36
X131.06Y-105.435
X131.18Y-138.44
X131.19Y-134.37
X131.76Y-101.41
X131.82Y-110.875
X131.85Y-113.13
X132.07Y-136.56
X132.33Y-138.985
X132.5Y-114.35
X132.53Y-111.68
X132.56Y-117.32
X132.56Y-121.21
X132.56Y-124.73
X132.56Y-130.35
X132.56Y-132.35
X132.57Y-122.63
X132.59Y-127.01
X132.72Y-134.19
X132.82Y-136.76
X133.14Y-131.63
X133.31Y-109.48
X133.6Y-132.76
X133.85Y-111.96
X133.88Y-120.03
X133.88Y-122.53
X133.91Y-126.95
X133.94Y-125.48
X133.96Y-123.71
X134.0Y-129.18
X134.1Y-136.17
X134.13Y-116.8
X134.21Y-98.71
X134.25Y-130.47
X134.26Y-107.621
X134.32Y-110.67
X134.43Y-134.035
X134.87Y-135.415
X135.05Y-112.03
X135.16Y-118.885
X135.39Y-114.02
X135.54Y-138.085
X135.785Y-101.46
X136.01Y-135.525
X136.17Y-132.46
X136.26Y-129.44
X136.46Y-107.46
X136.55Y-137.65
X136.59Y-127.61
X136.68Y-138.96
X136.97Y-123.58
X137.21Y-121.46
X137.63Y-137.045
X137.69Y-132.675
X137.71Y-101.21
X137.77Y-134.255
X137.96Y-97.71
X138.15Y-110.77
X138.5Y-126.05
X138.58Y-116.81
X138.59Y-121.95
X138.69Y-112.89
X138.71Y-114.46
X138.71Y-107.55
X138.75Y-132.75
X138.79Y-131.23
X138.81Y-118.94
X138.96Y-104.71
X139.05Y-138.115
X139.76Y-138.935
X140.71Y-98.71
X140.96Y-104.71
X140.96Y-109.71
X140.96Y-119.71
X140.96Y-124.71
X140.96Y-129.71
X140.96Y-134.71
X141.56Y-137.935
X142.96Y-104.71
X142.96Y-107.21
X142.96Y-112.21
X142.96Y-122.21
X142.96Y-124.71
X142.96Y-127.21
X142.96Y-132.21
X143.96Y-101.21
X144.96Y-104.71
X144.96Y-109.71
X144.96Y-114.71
X144.96Y-119.71
X144.96Y-124.71
X144.96Y-129.71
X144.96Y-134.71
X145.71Y-97.71
X145.76Y-137.71
X146.96Y-107.21
X146.96Y-112.21
X146.96Y-117.21
X146.96Y-122.21
X146.96Y-124.71
X146.96Y-127.21
X146.96Y-132.21
X146.96Y-134.71
X148.46Y-100.96
X148.96Y-104.71
X148.96Y-109.71
X148.96Y-114.71
X148.96Y-119.71
X148.96Y-124.71
X148.96Y-129.71
X148.96Y-134.71
X150.135Y-137.785
X150.96Y-104.71
X150.96Y-107.21
X150.96Y-109.71
X150.96Y-112.21
X150.96Y-117.21
X150.96Y-122.21
X150.96Y-124.71
X150.96Y-127.21
X150.96Y-132.21
X150.96Y-134.71
X151.96Y-98.71
X152.96Y-104.71
X152.96Y-109.71
X152.96Y-114.71
X152.96Y-119.71
X152.96Y-124.71
X152.96Y-129.71
X152.96Y-134.71
X153.01Y-100.935
X153.51Y-137.76
X154.96Y-106.185
X154.96Y-108.21
X154.96Y-116.21
X154.96Y-118.235
X154.96Y-126.185
X154.96Y-128.235
X154.96Y-136.185
X155.01Y-140.35
X155.88Y-139.7
X156.96Y-104.71
X156.96Y-109.71
X156.96Y-114.71
X156.96Y-119.71
X156.96Y-124.71
X156.96Y-129.71
X156.96Y-134.71
X157.13Y-100.955
X157.21Y-97.71
X157.735Y-137.685
X158.81Y-117.16
X158.99Y-136.155
X159.01Y-115.01
X159.085Y-112.16
X159.09Y-102.245
X159.09Y-108.955
X159.21Y-107.485
X159.63Y-119.065
X159.7Y-110.035
X159.71Y-127.21
X159.71Y-131.96
X159.91Y-116.86
X159.96Y-105.21
X159.96Y-129.71
X159.96Y-135.21
X160.106Y-103.548
X160.3Y-113.275
X160.6Y-125.08
X160.61Y-107.41
X160.61Y-122.66
X160.61Y-123.91
X160.62Y-100.005
X160.66Y-110.785
X160.76Y-139.34
X160.83Y-109.305
X160.93Y-134.27
X161.12Y-119.035
X161.21Y-115.26
X161.46Y-101.205
X161.51Y-138.38
X161.9Y-140.27
X161.95Y-119.31
X162.21Y-126.46
X162.71Y-125.46
X162.835Y-114.01
X163.18Y-105.835
X163.42Y-139.151
X163.65Y-113.325
X163.66Y-112.175
X163.81Y-108.685
X163.87Y-101.09
X163.95Y-107.155
X163.96Y-130.96
X164.21Y-104.465
X164.21Y-126.71
X164.3Y-134.44
X164.56Y-114.135
X164.62Y-108.505
X164.76Y-113.21
X164.86Y-115.91
X164.86Y-118.81
T2
X136.46Y-113.04
X137.46Y-113.04
T3
X162.985Y-115.335
X162.985Y-116.605
X162.985Y-117.875
X162.985Y-119.145
X162.985Y-120.415
X162.985Y-121.685
X162.985Y-122.955
X162.985Y-124.225
X163.71Y-127.96
X163.71Y-129.23
T0
M30
